<svg width="134" height="134" viewBox="0 0 134 134" fill="none" xmlns="http://www.w3.org/2000/svg">
<circle cx="67.1884" cy="66.7829" r="54.3198" stroke="url(#paint0_linear_2616_50561)" stroke-width="24"/>
<path d="M58.8619 124.539L56.949 124.123L58.5059 116.95L54.6064 116.103L54.9444 114.546L60.7569 115.808L58.8619 124.539Z" fill="white"/>
<path d="M40.6454 118.968L38.9171 118.048L43.1122 110.16L44.8405 111.079L40.6454 118.968Z" fill="white"/>
<path d="M22.2694 105.035L28.9054 99.0528L30.0649 100.339L26.4393 103.607L31.4427 101.868L32.2913 102.809L30.0986 107.573L33.6776 104.347L34.8286 105.624L28.1925 111.606L27.1507 110.45L30.1115 103.895L23.3028 106.181L22.2694 105.035Z" fill="white"/>
<path d="M12.6082 90.2237L11.8727 88.4096L20.1523 85.0526L20.8878 86.8667L12.6082 90.2237Z" fill="white"/>
<path d="M9.63355 75.2183L9.89005 78.0048L8.30315 78.1508L7.6084 70.6037L9.1953 70.4576L9.45181 73.244L16.7616 72.5712L16.9433 74.5454L9.63355 75.2183Z" fill="white"/>
<path d="M8.14246 55.3579L9.81522 49.4282L11.2765 49.8404L10.1216 53.9344L12.1505 54.5068L13.2339 50.6663L14.7072 51.082L13.6239 54.9224L15.7977 55.5356L16.9526 51.4416L18.4139 51.8538L16.7412 57.7835L8.14246 55.3579Z" fill="white"/>
<path d="M15.6188 35.1869L17.7678 32.487C18.3773 31.7212 19.0383 31.1728 19.7508 30.8419C20.4633 30.5109 21.196 30.4097 21.9488 30.5385C22.7069 30.6608 23.4492 31.011 24.1757 31.5893C24.9088 32.1728 25.4225 32.8169 25.7169 33.5217C26.0113 34.2264 26.0804 34.9657 25.9242 35.7395C25.7615 36.5081 25.3728 37.2786 24.7581 38.0509L22.6091 40.7508L15.6188 35.1869ZM23.4429 37.1645C24.6307 35.6722 24.4686 34.3243 22.9566 33.1209C21.4578 31.9279 20.1145 32.0775 18.9267 33.5698L18.0749 34.64L22.5911 38.2346L23.4429 37.1645Z" fill="white"/>
<path d="M46.4942 12.1874L43.8059 12.9638L43.3637 11.4328L50.6451 9.32974L51.0873 10.8608L48.399 11.6372L50.4359 18.6896L48.5312 19.2398L46.4942 12.1874Z" fill="white"/>
<path d="M64.5992 7.2168L66.5566 7.24073L66.4474 16.1743L64.49 16.1504L64.5992 7.2168Z" fill="white"/>
<path d="M87.3189 11.1677L84.1663 19.5273L82.546 18.9163L84.2685 14.349L80.6205 18.1901L79.4347 17.7429L79.1977 12.5037L77.4974 17.0123L75.8889 16.4057L79.0415 8.0461L80.4974 8.59515L80.8732 15.7776L85.8748 10.6231L87.3189 11.1677Z" fill="white"/>
<path d="M103.706 20.4371L108.075 24.7805L107.005 25.8574L103.988 22.8585L102.502 24.3536L105.332 27.1667L104.253 28.2525L101.423 25.4394L99.8304 27.0413L102.847 30.0401L101.777 31.117L97.4073 26.7735L103.706 20.4371Z" fill="white"/>
<path d="M114.504 53.7457C114.347 52.8728 114.392 52.0787 114.638 51.3633C114.893 50.6546 115.331 50.0621 115.951 49.5857C116.573 49.1175 117.341 48.8015 118.255 48.6379C119.169 48.4743 119.994 48.5049 120.732 48.7299C121.47 48.9631 122.078 49.3684 122.555 49.9458C123.042 50.53 123.364 51.2585 123.52 52.1314C123.677 53.0042 123.627 53.795 123.371 54.5036C123.124 55.2108 122.694 55.7977 122.08 56.2645C121.467 56.7312 120.703 57.0464 119.789 57.21C118.875 57.3737 118.046 57.3437 117.3 57.1202C116.555 56.8968 115.939 56.497 115.454 55.9211C114.977 55.3437 114.66 54.6185 114.504 53.7457ZM116.01 53.4759C116.143 54.217 116.506 54.747 117.098 55.0658C117.692 55.3929 118.475 55.4695 119.447 55.2955C120.418 55.1215 121.122 54.7789 121.557 54.2675C121.994 53.7644 122.146 53.1423 122.013 52.4012C121.881 51.6601 121.522 51.1252 120.936 50.7967C120.352 50.4763 119.574 50.4032 118.602 50.5771C117.622 50.7526 116.91 51.0926 116.464 51.5972C116.029 52.1085 115.878 52.7348 116.01 53.4759Z" fill="white"/>
<path d="M124.695 73.8071L123.343 79.6767L121.839 79.3304L122.757 75.344L120.739 74.8795L119.878 78.6213L118.362 78.2723L119.223 74.5304L115.554 73.6859L115.988 71.8027L124.695 73.8071Z" fill="white"/>
<path d="M118.347 93.6297L115.042 98.6652L113.751 97.8184L115.996 94.3984L114.265 93.2624L112.158 96.4725L110.857 95.6188L112.964 92.4087L109.817 90.3432L110.877 88.7276L118.347 93.6297Z" fill="white"/>
<path d="M105.513 110.016L100.554 113.673L99.6529 112.451L103.076 109.926L101.825 108.23L98.6137 110.598L97.705 109.366L100.916 106.998L99.5757 105.18L96.1523 107.705L95.2511 106.483L100.209 102.826L105.513 110.016Z" fill="white"/>
<path d="M77.8728 114.444L79.8787 113.931L81.7219 116.53C81.8691 116.734 82.0473 116.857 82.2565 116.898C82.4576 116.942 82.6959 116.928 82.9714 116.858L84.1993 116.544L83.3069 113.055L85.1791 112.576L87.3929 121.231L83.5392 122.217C82.5342 122.474 81.7164 122.45 81.0858 122.145C80.4551 121.84 80.0352 121.278 79.8258 120.46C79.6786 119.884 79.7062 119.351 79.9084 118.859C80.1026 118.369 80.4605 117.962 80.9822 117.638C80.4447 117.664 79.9858 117.405 79.6055 116.864L77.8728 114.444ZM82.8673 118.426C82.3243 118.564 81.95 118.755 81.7444 118.998C81.5408 119.248 81.4888 119.568 81.5883 119.957C81.6878 120.346 81.8859 120.598 82.1828 120.712C82.4817 120.834 82.9026 120.826 83.4456 120.687L85.1719 120.245L84.5936 117.984L82.8673 118.426Z" fill="white"/>
<defs>
<linearGradient id="paint0_linear_2616_50561" x1="44.0106" y1="0.463132" x2="99.7753" y2="124.078" gradientUnits="userSpaceOnUse">
<stop stop-color="#F1752F"/>
<stop offset="0.360577" stop-color="#BC369D"/>
<stop offset="0.605769" stop-color="#164897"/>
<stop offset="0.899038" stop-color="#2D8869"/>
</linearGradient>
</defs>
</svg>
