<svg width="42" height="43" viewBox="0 0 42 43" fill="none" xmlns="http://www.w3.org/2000/svg">
<g clip-path="url(#clip0_2647_155)">
<g clip-path="url(#clip1_2647_155)">
<path d="M13.386 30.8176C14.5641 32.341 15.6364 33.9458 16.5952 35.6201C17.4137 37.1949 17.755 38.2627 18.3532 40.1601C18.72 41.2084 19.0516 41.5212 19.7644 41.5212C20.5412 41.5212 20.8937 40.989 21.166 40.1658C21.7314 38.3739 22.1751 37.0064 22.8751 35.7143C24.2486 33.2196 25.9554 31.0028 27.6324 28.8723C28.0865 28.2693 31.0218 24.7564 32.3433 21.9846C32.3433 21.9846 33.9675 18.9398 33.9675 14.6874C33.9675 10.7097 32.3657 7.9509 32.3657 7.9509L27.7541 9.20397L24.9535 16.688L24.2606 17.72L24.1221 17.907L23.9378 18.141L23.6144 18.5148L23.1521 18.9837L20.6582 21.0452L14.4232 24.6978L13.386 30.8176Z" fill="#34A853"/>
<path d="M6.95068 21.4727C8.47242 24.9993 11.4069 28.0994 13.3923 30.82L23.9377 18.1458C23.9377 18.1458 22.452 20.1172 19.7571 20.1172C16.7552 20.1172 14.3302 17.6851 14.3302 14.6183C14.3302 12.5153 15.5772 11.0705 15.5772 11.0705L8.4187 13.0167L6.95068 21.4727Z" fill="#FBBC04"/>
<path d="M24.0554 0.850403C27.5577 1.99614 30.5555 4.40148 32.3687 7.94839L23.9408 18.1385C23.9408 18.1385 25.1878 16.6676 25.1878 14.5776C25.1878 11.4394 22.5833 9.09503 19.7698 9.09503C17.1091 9.09503 15.5811 11.0632 15.5811 11.0632V4.64351L24.0554 0.850403Z" fill="#4285F4"/>
<path d="M8.88257 5.35297C10.9744 2.8136 14.6553 0.198669 19.7299 0.198669C22.1919 0.198669 24.0468 0.854487 24.0468 0.854487L15.5733 11.0688H9.56968L8.88257 5.35297Z" fill="#1A73E8"/>
<path d="M6.95075 21.4727C6.95075 21.4727 5.55078 18.6911 5.55078 14.6613C5.55078 10.8527 7.01003 7.52348 8.88254 5.35297L15.578 11.0697L6.95075 21.4727Z" fill="#EA4335"/>
</g>
</g>
<defs>
<clipPath id="clip0_2647_155">
<rect width="41.3335" height="41.3335" fill="white" transform="translate(0.158691 0.794678)"/>
</clipPath>
<clipPath id="clip1_2647_155">
<rect width="28.6244" height="41.0358" fill="white" transform="translate(5.55078 0.198669)"/>
</clipPath>
</defs>
</svg>
