<svg width="517" height="281" viewBox="0 0 517 281" fill="none" xmlns="http://www.w3.org/2000/svg">
<line x1="254.256" y1="237.043" x2="254.256" y2="74.3531" stroke="white" stroke-width="0.74157"/>
<line x1="159.356" y1="130.292" x2="159.356" y2="18.4141" stroke="white" stroke-width="0.74157"/>
<line x1="74.3245" y1="237.043" x2="74.3245" y2="55.9681" stroke="white" stroke-width="0.74157"/>
<line x1="366.619" y1="242.17" x2="366.619" y2="18.4141" stroke="white" stroke-width="0.74157"/>
<line x1="460.761" y1="228.46" x2="460.761" y2="34.1282" stroke="white" stroke-width="0.74157"/>
<g clip-path="url(#clip0_2642_50597)">
<path d="M195.596 245.17C194.532 245.12 193.469 245.293 192.476 245.677C191.483 246.062 190.581 246.649 189.828 247.402C189.075 248.155 188.487 249.057 188.103 250.05C187.719 251.044 187.546 252.106 187.596 253.17C187.596 255.69 189.596 258.17 190.596 259.17C191.596 260.17 195.596 265.17 195.596 265.17C195.596 265.17 199.596 260.17 200.596 259.17C201.596 258.17 203.596 255.69 203.596 253.17C203.646 252.106 203.473 251.044 203.089 250.05C202.704 249.057 202.117 248.155 201.364 247.402C200.611 246.649 199.709 246.062 198.715 245.677C197.722 245.293 196.66 245.12 195.596 245.17ZM195.596 256.42C194.953 256.42 194.325 256.229 193.79 255.872C193.256 255.515 192.839 255.007 192.593 254.414C192.347 253.82 192.283 253.166 192.408 252.536C192.534 251.905 192.843 251.326 193.298 250.872C193.752 250.417 194.331 250.108 194.962 249.982C195.592 249.857 196.246 249.921 196.84 250.167C197.433 250.413 197.941 250.83 198.298 251.364C198.655 251.899 198.846 252.527 198.846 253.17C198.846 253.597 198.762 254.019 198.598 254.414C198.435 254.808 198.196 255.166 197.894 255.468C197.592 255.77 197.234 256.009 196.84 256.172C196.445 256.336 196.023 256.42 195.596 256.42Z" fill="url(#paint0_linear_2642_50597)"/>
</g>
<g clip-path="url(#clip1_2642_50597)">
<path d="M152.596 202.17C151.532 202.12 150.469 202.293 149.476 202.677C148.483 203.062 147.581 203.649 146.828 204.402C146.075 205.155 145.487 206.057 145.103 207.05C144.719 208.044 144.546 209.106 144.596 210.17C144.596 212.69 146.596 215.17 147.596 216.17C148.596 217.17 152.596 222.17 152.596 222.17C152.596 222.17 156.596 217.17 157.596 216.17C158.596 215.17 160.596 212.69 160.596 210.17C160.646 209.106 160.473 208.044 160.089 207.05C159.704 206.057 159.117 205.155 158.364 204.402C157.611 203.649 156.709 203.062 155.715 202.677C154.722 202.293 153.66 202.12 152.596 202.17ZM152.596 213.42C151.953 213.42 151.325 213.229 150.79 212.872C150.256 212.515 149.839 212.007 149.593 211.414C149.347 210.82 149.283 210.166 149.408 209.536C149.534 208.905 149.843 208.326 150.298 207.872C150.752 207.417 151.331 207.108 151.962 206.982C152.592 206.857 153.246 206.921 153.84 207.167C154.433 207.413 154.941 207.83 155.298 208.364C155.655 208.899 155.846 209.527 155.846 210.17C155.846 210.597 155.762 211.019 155.598 211.414C155.435 211.808 155.196 212.166 154.894 212.468C154.592 212.77 154.234 213.009 153.84 213.172C153.445 213.336 153.023 213.42 152.596 213.42Z" fill="url(#paint1_linear_2642_50597)"/>
</g>
<g clip-path="url(#clip2_2642_50597)">
<path d="M207.596 120.292C206.532 120.242 205.469 120.415 204.476 120.799C203.483 121.184 202.581 121.771 201.828 122.524C201.075 123.277 200.487 124.179 200.103 125.172C199.719 126.166 199.546 127.228 199.596 128.292C199.596 130.812 201.596 133.292 202.596 134.292C203.596 135.292 207.596 140.292 207.596 140.292C207.596 140.292 211.596 135.292 212.596 134.292C213.596 133.292 215.596 130.812 215.596 128.292C215.646 127.228 215.473 126.166 215.089 125.172C214.704 124.179 214.117 123.277 213.364 122.524C212.611 121.771 211.709 121.184 210.715 120.799C209.722 120.415 208.66 120.242 207.596 120.292ZM207.596 131.542C206.953 131.542 206.325 131.351 205.79 130.994C205.256 130.637 204.839 130.13 204.593 129.536C204.347 128.942 204.283 128.288 204.408 127.658C204.534 127.028 204.843 126.448 205.298 125.994C205.752 125.539 206.331 125.23 206.962 125.104C207.592 124.979 208.246 125.043 208.84 125.289C209.433 125.535 209.941 125.952 210.298 126.486C210.655 127.021 210.846 127.649 210.846 128.292C210.846 128.719 210.762 129.141 210.598 129.536C210.435 129.93 210.196 130.288 209.894 130.59C209.592 130.892 209.234 131.131 208.84 131.295C208.445 131.458 208.023 131.542 207.596 131.542Z" fill="url(#paint2_linear_2642_50597)"/>
</g>
<g clip-path="url(#clip3_2642_50597)">
<path d="M162.596 148.128C161.532 148.078 160.469 148.251 159.476 148.635C158.483 149.02 157.581 149.607 156.828 150.36C156.075 151.113 155.487 152.015 155.103 153.009C154.719 154.002 154.546 155.064 154.596 156.128C154.596 158.648 156.596 161.128 157.596 162.128C158.596 163.128 162.596 168.128 162.596 168.128C162.596 168.128 166.596 163.128 167.596 162.128C168.596 161.128 170.596 158.648 170.596 156.128C170.646 155.064 170.473 154.002 170.089 153.009C169.704 152.015 169.117 151.113 168.364 150.36C167.611 149.607 166.709 149.02 165.715 148.635C164.722 148.251 163.66 148.078 162.596 148.128ZM162.596 159.378C161.953 159.378 161.325 159.188 160.79 158.83C160.256 158.473 159.839 157.966 159.593 157.372C159.347 156.778 159.283 156.125 159.408 155.494C159.534 154.864 159.843 154.285 160.298 153.83C160.752 153.376 161.331 153.066 161.962 152.941C162.592 152.815 163.246 152.88 163.84 153.126C164.433 153.372 164.941 153.788 165.298 154.323C165.655 154.857 165.846 155.485 165.846 156.128C165.846 156.555 165.762 156.978 165.598 157.372C165.435 157.766 165.196 158.124 164.894 158.426C164.592 158.728 164.234 158.967 163.84 159.131C163.445 159.294 163.023 159.378 162.596 159.378Z" fill="url(#paint3_linear_2642_50597)"/>
</g>
<path d="M36.4557 44.1282V37.0782H39.3757C40.129 37.0782 40.7057 37.2582 41.1057 37.6182C41.5057 37.9782 41.7057 38.4748 41.7057 39.1082C41.7057 39.7415 41.5057 40.2415 41.1057 40.6082C40.7057 40.9682 40.129 41.1482 39.3757 41.1482H37.3857V44.1282H36.4557ZM37.3857 40.3882H39.2857C39.779 40.3882 40.1524 40.2782 40.4057 40.0582C40.659 39.8315 40.7857 39.5148 40.7857 39.1082C40.7857 38.7015 40.659 38.3882 40.4057 38.1682C40.1524 37.9482 39.779 37.8382 39.2857 37.8382H37.3857V40.3882ZM44.5843 44.2182C44.1443 44.2182 43.7576 44.1148 43.4243 43.9082C43.091 43.7015 42.831 43.4015 42.6443 43.0082C42.4576 42.6148 42.3643 42.1482 42.3643 41.6082C42.3643 41.0682 42.4576 40.6048 42.6443 40.2182C42.831 39.8248 43.091 39.5248 43.4243 39.3182C43.7576 39.1115 44.1443 39.0082 44.5843 39.0082C45.031 39.0082 45.4176 39.1215 45.7443 39.3482C46.0776 39.5682 46.2976 39.8715 46.4043 40.2582H46.2843L46.3943 39.0982H47.2743C47.2543 39.2982 47.2343 39.4982 47.2143 39.6982C47.201 39.8982 47.1943 40.0948 47.1943 40.2882V44.1282H46.2843V42.9782H46.3943C46.2876 43.3582 46.0676 43.6615 45.7343 43.8882C45.4076 44.1082 45.0243 44.2182 44.5843 44.2182ZM44.7943 43.4982C45.2476 43.4982 45.611 43.3382 45.8843 43.0182C46.1576 42.6982 46.2943 42.2282 46.2943 41.6082C46.2943 40.9882 46.1576 40.5215 45.8843 40.2082C45.611 39.8948 45.2476 39.7382 44.7943 39.7382C44.341 39.7382 43.9743 39.8948 43.6943 40.2082C43.421 40.5215 43.2843 40.9882 43.2843 41.6082C43.2843 42.2282 43.421 42.6982 43.6943 43.0182C43.9676 43.3382 44.3343 43.4982 44.7943 43.4982ZM48.719 44.1282V36.7682H49.629V44.1282H48.719ZM51.1506 44.1282V40.2882C51.1506 40.0948 51.144 39.8982 51.1306 39.6982C51.1173 39.4982 51.0973 39.2982 51.0706 39.0982H51.9506L52.0506 40.1782H51.9306C52.064 39.8048 52.2773 39.5182 52.5706 39.3182C52.864 39.1115 53.214 39.0082 53.6206 39.0082C54.034 39.0082 54.374 39.1082 54.6406 39.3082C54.9073 39.5015 55.0873 39.8082 55.1806 40.2282H55.0306C55.1573 39.8548 55.3806 39.5582 55.7006 39.3382C56.0206 39.1182 56.394 39.0082 56.8206 39.0082C57.374 39.0082 57.7906 39.1715 58.0706 39.4982C58.3506 39.8182 58.4906 40.3182 58.4906 40.9982V44.1282H57.5806V41.0482C57.5806 40.5882 57.5006 40.2582 57.3406 40.0582C57.1806 39.8515 56.9273 39.7482 56.5806 39.7482C56.174 39.7482 55.854 39.8882 55.6206 40.1682C55.3873 40.4415 55.2706 40.8148 55.2706 41.2882V44.1282H54.3606V41.0482C54.3606 40.5882 54.2806 40.2582 54.1206 40.0582C53.9673 39.8515 53.714 39.7482 53.3606 39.7482C52.954 39.7482 52.634 39.8882 52.4006 40.1682C52.174 40.4415 52.0606 40.8148 52.0606 41.2882V44.1282H51.1506ZM62.2688 44.2182C61.4688 44.2182 60.8354 43.9882 60.3688 43.5282C59.9088 43.0682 59.6788 42.4348 59.6788 41.6282C59.6788 41.0948 59.7788 40.6348 59.9788 40.2482C60.1854 39.8548 60.4688 39.5515 60.8288 39.3382C61.1888 39.1182 61.6088 39.0082 62.0888 39.0082C62.5488 39.0082 62.9388 39.1082 63.2588 39.3082C63.5788 39.5015 63.8221 39.7782 63.9888 40.1382C64.1554 40.4982 64.2388 40.9248 64.2388 41.4182V41.7182H60.3888V41.1782H63.6188L63.4488 41.3082C63.4488 40.7882 63.3321 40.3848 63.0988 40.0982C62.8721 39.8115 62.5354 39.6682 62.0888 39.6682C61.6021 39.6682 61.2254 39.8382 60.9588 40.1782C60.6921 40.5115 60.5588 40.9682 60.5588 41.5482V41.6382C60.5588 42.2515 60.7088 42.7148 61.0088 43.0282C61.3154 43.3415 61.7388 43.4982 62.2788 43.4982C62.5788 43.4982 62.8588 43.4548 63.1188 43.3682C63.3788 43.2815 63.6288 43.1382 63.8688 42.9382L64.1688 43.5682C63.9421 43.7748 63.6588 43.9348 63.3188 44.0482C62.9854 44.1615 62.6354 44.2182 62.2688 44.2182ZM67.2982 44.2182C66.7715 44.2182 66.3715 44.0748 66.0982 43.7882C65.8315 43.4948 65.6982 43.0548 65.6982 42.4682V39.7982H64.7182V39.0982H65.6982V37.7482L66.6082 37.4982V39.0982H68.0282V39.7982H66.6082V42.3882C66.6082 42.7748 66.6749 43.0515 66.8082 43.2182C66.9482 43.3782 67.1482 43.4582 67.4082 43.4582C67.5415 43.4582 67.6549 43.4482 67.7482 43.4282C67.8482 43.4015 67.9382 43.3715 68.0182 43.3382V44.0882C67.9182 44.1282 67.8015 44.1582 67.6682 44.1782C67.5415 44.2048 67.4182 44.2182 67.2982 44.2182ZM70.6966 44.2182C70.17 44.2182 69.77 44.0748 69.4966 43.7882C69.23 43.4948 69.0966 43.0548 69.0966 42.4682V39.7982H68.1166V39.0982H69.0966V37.7482L70.0066 37.4982V39.0982H71.4266V39.7982H70.0066V42.3882C70.0066 42.7748 70.0733 43.0515 70.2066 43.2182C70.3466 43.3782 70.5466 43.4582 70.8066 43.4582C70.94 43.4582 71.0533 43.4482 71.1466 43.4282C71.2466 43.4015 71.3366 43.3715 71.4166 43.3382V44.0882C71.3166 44.1282 71.2 44.1582 71.0666 44.1782C70.94 44.2048 70.8166 44.2182 70.6966 44.2182ZM74.4523 44.2182C73.9589 44.2182 73.5323 44.1148 73.1723 43.9082C72.8123 43.6948 72.5323 43.3948 72.3323 43.0082C72.1323 42.6148 72.0323 42.1482 72.0323 41.6082C72.0323 41.0748 72.1323 40.6148 72.3323 40.2282C72.5323 39.8348 72.8123 39.5348 73.1723 39.3282C73.5323 39.1148 73.9589 39.0082 74.4523 39.0082C74.9456 39.0082 75.3723 39.1148 75.7323 39.3282C76.0989 39.5348 76.3789 39.8348 76.5723 40.2282C76.7723 40.6148 76.8723 41.0748 76.8723 41.6082C76.8723 42.1482 76.7723 42.6148 76.5723 43.0082C76.3789 43.3948 76.0989 43.6948 75.7323 43.9082C75.3723 44.1148 74.9456 44.2182 74.4523 44.2182ZM74.4523 43.4982C74.9056 43.4982 75.2689 43.3382 75.5423 43.0182C75.8156 42.6982 75.9523 42.2282 75.9523 41.6082C75.9523 40.9882 75.8156 40.5215 75.5423 40.2082C75.2689 39.8948 74.9056 39.7382 74.4523 39.7382C73.9923 39.7382 73.6256 39.8948 73.3523 40.2082C73.0856 40.5215 72.9523 40.9882 72.9523 41.6082C72.9523 42.2282 73.0856 42.6982 73.3523 43.0182C73.6256 43.3382 73.9923 43.4982 74.4523 43.4982ZM80.8307 44.1282V37.0782H83.2207C84.0074 37.0782 84.6707 37.2148 85.2107 37.4882C85.7574 37.7615 86.1707 38.1615 86.4507 38.6882C86.7307 39.2082 86.8707 39.8448 86.8707 40.5982C86.8707 41.3515 86.7307 41.9915 86.4507 42.5182C86.1707 43.0448 85.7574 43.4448 85.2107 43.7182C84.6707 43.9915 84.0074 44.1282 83.2207 44.1282H80.8307ZM81.7607 43.3382H83.1507C84.0907 43.3382 84.7874 43.1115 85.2407 42.6582C85.694 42.2048 85.9207 41.5182 85.9207 40.5982C85.9207 39.6782 85.694 38.9948 85.2407 38.5482C84.7874 38.0948 84.0907 37.8682 83.1507 37.8682H81.7607V43.3382ZM88.2207 44.1282V40.3282C88.2207 40.1282 88.214 39.9248 88.2007 39.7182C88.194 39.5048 88.1774 39.2982 88.1507 39.0982H89.0307L89.1407 40.3582L88.9907 40.3682C89.0574 40.0615 89.1707 39.8082 89.3307 39.6082C89.4974 39.4015 89.694 39.2515 89.9207 39.1582C90.154 39.0582 90.394 39.0082 90.6407 39.0082C90.7474 39.0082 90.8374 39.0115 90.9107 39.0182C90.984 39.0248 91.0574 39.0415 91.1307 39.0682L91.1107 39.8782C91.0107 39.8382 90.9174 39.8148 90.8307 39.8082C90.7507 39.7948 90.6507 39.7882 90.5307 39.7882C90.2374 39.7882 89.984 39.8548 89.7707 39.9882C89.564 40.1215 89.404 40.2982 89.2907 40.5182C89.184 40.7382 89.1307 40.9748 89.1307 41.2282V44.1282H88.2207ZM91.567 44.1282V43.0182H92.677V44.1282H91.567Z" fill="white"/>
<path d="M123.786 11.2182C123.219 11.2182 122.709 11.1448 122.256 10.9982C121.802 10.8515 121.409 10.6448 121.076 10.3782L121.396 9.63817C121.629 9.81151 121.866 9.95817 122.106 10.0782C122.346 10.1915 122.602 10.2782 122.876 10.3382C123.156 10.3915 123.459 10.4182 123.786 10.4182C124.366 10.4182 124.792 10.3148 125.066 10.1082C125.346 9.89484 125.486 9.61484 125.486 9.26817C125.486 8.96817 125.389 8.73817 125.196 8.57817C125.002 8.41817 124.666 8.29151 124.186 8.19817L123.116 7.97817C122.469 7.84484 121.986 7.62817 121.666 7.32817C121.352 7.02151 121.196 6.60817 121.196 6.08817C121.196 5.66817 121.306 5.30151 121.526 4.98817C121.752 4.66817 122.062 4.42151 122.456 4.24817C122.856 4.07484 123.322 3.98817 123.856 3.98817C124.349 3.98817 124.806 4.06151 125.226 4.20817C125.646 4.35484 125.999 4.57151 126.286 4.85817L125.966 5.56817C125.666 5.29484 125.342 5.09817 124.996 4.97817C124.656 4.85151 124.269 4.78817 123.836 4.78817C123.309 4.78817 122.892 4.90151 122.586 5.12817C122.279 5.35484 122.126 5.66151 122.126 6.04817C122.126 6.35484 122.222 6.59817 122.416 6.77817C122.609 6.95151 122.929 7.08484 123.376 7.17817L124.446 7.38817C125.126 7.52151 125.622 7.73151 125.936 8.01817C126.256 8.30484 126.416 8.70151 126.416 9.20817C126.416 9.60817 126.309 9.96151 126.096 10.2682C125.882 10.5682 125.579 10.8015 125.186 10.9682C124.792 11.1348 124.326 11.2182 123.786 11.2182ZM128.927 11.1282L127.047 6.09817H127.997L129.517 10.4082H129.257L130.817 6.09817H131.557L133.107 10.4082H132.857L134.387 6.09817H135.297L133.407 11.1282H132.547L130.947 6.74817H131.387L129.797 11.1282H128.927ZM138.499 11.2182C137.699 11.2182 137.066 10.9882 136.599 10.5282C136.139 10.0682 135.909 9.43484 135.909 8.62817C135.909 8.09484 136.009 7.63484 136.209 7.24817C136.416 6.85484 136.699 6.55151 137.059 6.33817C137.419 6.11817 137.839 6.00817 138.319 6.00817C138.779 6.00817 139.169 6.10817 139.489 6.30817C139.809 6.50151 140.053 6.77817 140.219 7.13817C140.386 7.49817 140.469 7.92484 140.469 8.41817V8.71817H136.619V8.17817H139.849L139.679 8.30817C139.679 7.78817 139.563 7.38484 139.329 7.09817C139.103 6.81151 138.766 6.66817 138.319 6.66817C137.833 6.66817 137.456 6.83817 137.189 7.17817C136.923 7.51151 136.789 7.96817 136.789 8.54817V8.63817C136.789 9.25151 136.939 9.71484 137.239 10.0282C137.546 10.3415 137.969 10.4982 138.509 10.4982C138.809 10.4982 139.089 10.4548 139.349 10.3682C139.609 10.2815 139.859 10.1382 140.099 9.93817L140.399 10.5682C140.173 10.7748 139.889 10.9348 139.549 11.0482C139.216 11.1615 138.866 11.2182 138.499 11.2182ZM143.948 11.2182C143.148 11.2182 142.515 10.9882 142.048 10.5282C141.588 10.0682 141.358 9.43484 141.358 8.62817C141.358 8.09484 141.458 7.63484 141.658 7.24817C141.865 6.85484 142.148 6.55151 142.508 6.33817C142.868 6.11817 143.288 6.00817 143.768 6.00817C144.228 6.00817 144.618 6.10817 144.938 6.30817C145.258 6.50151 145.502 6.77817 145.668 7.13817C145.835 7.49817 145.918 7.92484 145.918 8.41817V8.71817H142.068V8.17817H145.298L145.128 8.30817C145.128 7.78817 145.012 7.38484 144.778 7.09817C144.552 6.81151 144.215 6.66817 143.768 6.66817C143.282 6.66817 142.905 6.83817 142.638 7.17817C142.372 7.51151 142.238 7.96817 142.238 8.54817V8.63817C142.238 9.25151 142.388 9.71484 142.688 10.0282C142.995 10.3415 143.418 10.4982 143.958 10.4982C144.258 10.4982 144.538 10.4548 144.798 10.3682C145.058 10.2815 145.308 10.1382 145.548 9.93817L145.848 10.5682C145.622 10.7748 145.338 10.9348 144.998 11.0482C144.665 11.1615 144.315 11.2182 143.948 11.2182ZM148.978 11.2182C148.451 11.2182 148.051 11.0748 147.778 10.7882C147.511 10.4948 147.378 10.0548 147.378 9.46817V6.79817H146.398V6.09817H147.378V4.74817L148.288 4.49817V6.09817H149.708V6.79817H148.288V9.38817C148.288 9.77484 148.355 10.0515 148.488 10.2182C148.628 10.3782 148.828 10.4582 149.088 10.4582C149.221 10.4582 149.335 10.4482 149.428 10.4282C149.528 10.4015 149.618 10.3715 149.698 10.3382V11.0882C149.598 11.1282 149.481 11.1582 149.348 11.1782C149.221 11.2048 149.098 11.2182 148.978 11.2182ZM156.669 11.2182C155.896 11.2182 155.246 11.0748 154.719 10.7882C154.192 10.4948 153.796 10.0782 153.529 9.53817C153.269 8.99817 153.139 8.35484 153.139 7.60817C153.139 6.86151 153.279 6.21817 153.559 5.67817C153.839 5.13817 154.239 4.72151 154.759 4.42817C155.286 4.13484 155.916 3.98817 156.649 3.98817C157.162 3.98817 157.609 4.06151 157.989 4.20817C158.369 4.35484 158.709 4.56817 159.009 4.84817L158.659 5.58817C158.446 5.40151 158.239 5.25151 158.039 5.13817C157.839 5.02484 157.629 4.94484 157.409 4.89817C157.196 4.84484 156.942 4.81817 156.649 4.81817C155.829 4.81817 155.202 5.06151 154.769 5.54817C154.336 6.03484 154.119 6.72484 154.119 7.61817C154.119 8.52484 154.329 9.21484 154.749 9.68817C155.169 10.1615 155.822 10.3982 156.709 10.3982C157.022 10.3982 157.329 10.3682 157.629 10.3082C157.929 10.2482 158.216 10.1615 158.489 10.0482L158.299 10.5182V8.12817H156.529V7.40817H159.099V10.7082C158.799 10.8615 158.429 10.9848 157.989 11.0782C157.549 11.1715 157.109 11.2182 156.669 11.2182ZM162.423 11.2182C161.816 11.2182 161.36 11.0548 161.053 10.7282C160.753 10.4015 160.603 9.89817 160.603 9.21817V6.09817H161.513V9.19817C161.513 9.63817 161.603 9.96151 161.783 10.1682C161.963 10.3748 162.243 10.4782 162.623 10.4782C163.036 10.4782 163.37 10.3415 163.623 10.0682C163.883 9.78817 164.013 9.41817 164.013 8.95817V6.09817H164.923V11.1282H164.043V10.0182H164.173C164.033 10.3982 163.81 10.6948 163.503 10.9082C163.196 11.1148 162.836 11.2182 162.423 11.2182ZM166.453 11.1282V7.28817C166.453 7.09484 166.447 6.89817 166.433 6.69817C166.42 6.49817 166.4 6.29817 166.373 6.09817H167.253L167.353 7.17817H167.233C167.367 6.80484 167.58 6.51817 167.873 6.31817C168.167 6.11151 168.517 6.00817 168.923 6.00817C169.337 6.00817 169.677 6.10817 169.943 6.30817C170.21 6.50151 170.39 6.80817 170.483 7.22817H170.333C170.46 6.85484 170.683 6.55817 171.003 6.33817C171.323 6.11817 171.697 6.00817 172.123 6.00817C172.677 6.00817 173.093 6.17151 173.373 6.49817C173.653 6.81817 173.793 7.31817 173.793 7.99817V11.1282H172.883V8.04817C172.883 7.58817 172.803 7.25817 172.643 7.05817C172.483 6.85151 172.23 6.74817 171.883 6.74817C171.477 6.74817 171.157 6.88817 170.923 7.16817C170.69 7.44151 170.573 7.81484 170.573 8.28817V11.1282H169.663V8.04817C169.663 7.58817 169.583 7.25817 169.423 7.05817C169.27 6.85151 169.017 6.74817 168.663 6.74817C168.257 6.74817 167.937 6.88817 167.703 7.16817C167.477 7.44151 167.363 7.81484 167.363 8.28817V11.1282H166.453ZM178.018 11.1282V4.07817H180.408C181.195 4.07817 181.858 4.21484 182.398 4.48817C182.945 4.76151 183.358 5.16151 183.638 5.68817C183.918 6.20817 184.058 6.84484 184.058 7.59817C184.058 8.35151 183.918 8.99151 183.638 9.51817C183.358 10.0448 182.945 10.4448 182.398 10.7182C181.858 10.9915 181.195 11.1282 180.408 11.1282H178.018ZM178.948 10.3382H180.338C181.278 10.3382 181.975 10.1115 182.428 9.65817C182.882 9.20484 183.108 8.51817 183.108 7.59817C183.108 6.67817 182.882 5.99484 182.428 5.54817C181.975 5.09484 181.278 4.86817 180.338 4.86817H178.948V10.3382ZM185.408 11.1282V7.32817C185.408 7.12817 185.402 6.92484 185.388 6.71817C185.382 6.50484 185.365 6.29817 185.338 6.09817H186.218L186.328 7.35817L186.178 7.36817C186.245 7.06151 186.358 6.80817 186.518 6.60817C186.685 6.40151 186.882 6.25151 187.108 6.15817C187.342 6.05817 187.582 6.00817 187.828 6.00817C187.935 6.00817 188.025 6.01151 188.098 6.01817C188.172 6.02484 188.245 6.04151 188.318 6.06817L188.298 6.87817C188.198 6.83817 188.105 6.81484 188.018 6.80817C187.938 6.79484 187.838 6.78817 187.718 6.78817C187.425 6.78817 187.172 6.85484 186.958 6.98817C186.752 7.12151 186.592 7.29817 186.478 7.51817C186.372 7.73817 186.318 7.97484 186.318 8.22817V11.1282H185.408ZM188.755 11.1282V10.0182H189.865V11.1282H188.755Z" fill="white"/>
<path d="M222.487 65.0418V57.9918H223.417V61.0718H227.517V57.9918H228.457V65.0418H227.517V61.8618H223.417V65.0418H222.487ZM231.983 65.1318C231.543 65.1318 231.156 65.0285 230.823 64.8218C230.49 64.6152 230.23 64.3152 230.043 63.9218C229.856 63.5285 229.763 63.0618 229.763 62.5218C229.763 61.9818 229.856 61.5185 230.043 61.1318C230.23 60.7385 230.49 60.4385 230.823 60.2318C231.156 60.0252 231.543 59.9218 231.983 59.9218C232.43 59.9218 232.816 60.0352 233.143 60.2618C233.476 60.4818 233.696 60.7852 233.803 61.1718H233.683L233.793 60.0118H234.673C234.653 60.2118 234.633 60.4118 234.613 60.6118C234.6 60.8118 234.593 61.0085 234.593 61.2018V65.0418H233.683V63.8918H233.793C233.686 64.2718 233.466 64.5752 233.133 64.8018C232.806 65.0218 232.423 65.1318 231.983 65.1318ZM232.193 64.4118C232.646 64.4118 233.01 64.2518 233.283 63.9318C233.556 63.6118 233.693 63.1418 233.693 62.5218C233.693 61.9018 233.556 61.4352 233.283 61.1218C233.01 60.8085 232.646 60.6518 232.193 60.6518C231.74 60.6518 231.373 60.8085 231.093 61.1218C230.82 61.4352 230.683 61.9018 230.683 62.5218C230.683 63.1418 230.82 63.6118 231.093 63.9318C231.366 64.2518 231.733 64.4118 232.193 64.4118ZM238.278 65.1318C237.778 65.1318 237.344 65.0285 236.978 64.8218C236.611 64.6085 236.324 64.3052 236.118 63.9118C235.918 63.5118 235.818 63.0385 235.818 62.4918C235.818 61.9518 235.921 61.4918 236.128 61.1118C236.334 60.7252 236.621 60.4318 236.988 60.2318C237.354 60.0252 237.784 59.9218 238.278 59.9218C238.604 59.9218 238.921 59.9785 239.228 60.0918C239.534 60.1985 239.784 60.3552 239.978 60.5618L239.668 61.2018C239.474 61.0152 239.261 60.8785 239.028 60.7918C238.794 60.6985 238.564 60.6518 238.338 60.6518C237.844 60.6518 237.458 60.8118 237.178 61.1318C236.898 61.4452 236.758 61.9018 236.758 62.5018C236.758 63.1085 236.898 63.5752 237.178 63.9018C237.458 64.2285 237.844 64.3918 238.338 64.3918C238.558 64.3918 238.784 64.3485 239.018 64.2618C239.251 64.1752 239.468 64.0385 239.668 63.8518L239.978 64.4818C239.778 64.6952 239.521 64.8585 239.208 64.9718C238.901 65.0785 238.591 65.1318 238.278 65.1318ZM241.088 65.0418V57.6818H241.998V62.2318H242.018L244.288 60.0118H245.418L242.718 62.6518L242.728 62.2218L245.658 65.0418H244.498L242.018 62.7018H241.998V65.0418H241.088ZM248.933 65.1318C248.486 65.1318 248.099 65.0218 247.773 64.8018C247.446 64.5752 247.229 64.2652 247.123 63.8718H247.233V65.0418H246.323V57.6818H247.233V61.1618H247.123C247.236 60.7752 247.453 60.4718 247.773 60.2518C248.099 60.0318 248.486 59.9218 248.933 59.9218C249.379 59.9218 249.769 60.0285 250.103 60.2418C250.436 60.4485 250.693 60.7452 250.873 61.1318C251.059 61.5185 251.153 61.9852 251.153 62.5318C251.153 63.0718 251.059 63.5385 250.873 63.9318C250.693 64.3185 250.433 64.6152 250.093 64.8218C249.759 65.0285 249.373 65.1318 248.933 65.1318ZM248.723 64.4118C249.176 64.4118 249.539 64.2552 249.813 63.9418C250.093 63.6218 250.233 63.1518 250.233 62.5318C250.233 61.9118 250.093 61.4452 249.813 61.1318C249.539 60.8118 249.176 60.6518 248.723 60.6518C248.263 60.6518 247.896 60.8085 247.623 61.1218C247.356 61.4352 247.223 61.9018 247.223 62.5218C247.223 63.1418 247.356 63.6118 247.623 63.9318C247.896 64.2518 248.263 64.4118 248.723 64.4118ZM254.667 65.1318C253.867 65.1318 253.234 64.9018 252.767 64.4418C252.307 63.9818 252.077 63.3485 252.077 62.5418C252.077 62.0085 252.177 61.5485 252.377 61.1618C252.584 60.7685 252.867 60.4652 253.227 60.2518C253.587 60.0318 254.007 59.9218 254.487 59.9218C254.947 59.9218 255.337 60.0218 255.657 60.2218C255.977 60.4152 256.221 60.6918 256.387 61.0518C256.554 61.4118 256.637 61.8385 256.637 62.3318V62.6318H252.787V62.0918H256.017L255.847 62.2218C255.847 61.7018 255.731 61.2985 255.497 61.0118C255.271 60.7252 254.934 60.5818 254.487 60.5818C254.001 60.5818 253.624 60.7518 253.357 61.0918C253.091 61.4252 252.957 61.8818 252.957 62.4618V62.5518C252.957 63.1652 253.107 63.6285 253.407 63.9418C253.714 64.2552 254.137 64.4118 254.677 64.4118C254.977 64.4118 255.257 64.3685 255.517 64.2818C255.777 64.1952 256.027 64.0518 256.267 63.8518L256.567 64.4818C256.341 64.6885 256.057 64.8485 255.717 64.9618C255.384 65.0752 255.034 65.1318 254.667 65.1318ZM257.817 65.0418V61.2418C257.817 61.0418 257.81 60.8385 257.797 60.6318C257.79 60.4185 257.773 60.2118 257.747 60.0118H258.627L258.737 61.2718L258.587 61.2818C258.653 60.9752 258.767 60.7218 258.927 60.5218C259.093 60.3152 259.29 60.1652 259.517 60.0718C259.75 59.9718 259.99 59.9218 260.237 59.9218C260.343 59.9218 260.433 59.9252 260.507 59.9318C260.58 59.9385 260.653 59.9552 260.727 59.9818L260.707 60.7918C260.607 60.7518 260.513 60.7285 260.427 60.7218C260.347 60.7085 260.247 60.7018 260.127 60.7018C259.833 60.7018 259.58 60.7685 259.367 60.9018C259.16 61.0352 259 61.2118 258.887 61.4318C258.78 61.6518 258.727 61.8885 258.727 62.1418V65.0418H257.817ZM261.518 65.0418V61.2418C261.518 61.0418 261.511 60.8385 261.498 60.6318C261.491 60.4185 261.474 60.2118 261.448 60.0118H262.328L262.438 61.2718L262.288 61.2818C262.354 60.9752 262.468 60.7218 262.628 60.5218C262.794 60.3152 262.991 60.1652 263.218 60.0718C263.451 59.9718 263.691 59.9218 263.938 59.9218C264.044 59.9218 264.134 59.9252 264.208 59.9318C264.281 59.9385 264.354 59.9552 264.428 59.9818L264.408 60.7918C264.308 60.7518 264.214 60.7285 264.128 60.7218C264.048 60.7085 263.948 60.7018 263.828 60.7018C263.534 60.7018 263.281 60.7685 263.068 60.9018C262.861 61.0352 262.701 61.2118 262.588 61.4318C262.481 61.6518 262.428 61.8885 262.428 62.1418V65.0418H261.518ZM265.362 67.3118L265.152 66.5718C265.465 66.4985 265.725 66.4118 265.932 66.3118C266.138 66.2185 266.312 66.0952 266.452 65.9418C266.592 65.7885 266.715 65.5952 266.822 65.3618L267.072 64.7618L267.052 65.1418L264.862 60.0118H265.842L267.592 64.3218H267.332L269.082 60.0118H270.022L267.712 65.4318C267.572 65.7585 267.418 66.0318 267.252 66.2518C267.092 66.4718 266.915 66.6518 266.722 66.7918C266.535 66.9318 266.328 67.0418 266.102 67.1218C265.875 67.2018 265.628 67.2652 265.362 67.3118ZM273.61 65.0418V57.9918H276C276.787 57.9918 277.45 58.1285 277.99 58.4018C278.537 58.6752 278.95 59.0752 279.23 59.6018C279.51 60.1218 279.65 60.7585 279.65 61.5118C279.65 62.2652 279.51 62.9052 279.23 63.4318C278.95 63.9585 278.537 64.3585 277.99 64.6318C277.45 64.9052 276.787 65.0418 276 65.0418H273.61ZM274.54 64.2518H275.93C276.87 64.2518 277.567 64.0252 278.02 63.5718C278.474 63.1185 278.7 62.4318 278.7 61.5118C278.7 60.5918 278.474 59.9085 278.02 59.4618C277.567 59.0085 276.87 58.7818 275.93 58.7818H274.54V64.2518ZM281 65.0418V61.2418C281 61.0418 280.994 60.8385 280.98 60.6318C280.974 60.4185 280.957 60.2118 280.93 60.0118H281.81L281.92 61.2718L281.77 61.2818C281.837 60.9752 281.95 60.7218 282.11 60.5218C282.277 60.3152 282.474 60.1652 282.7 60.0718C282.934 59.9718 283.174 59.9218 283.42 59.9218C283.527 59.9218 283.617 59.9252 283.69 59.9318C283.764 59.9385 283.837 59.9552 283.91 59.9818L283.89 60.7918C283.79 60.7518 283.697 60.7285 283.61 60.7218C283.53 60.7085 283.43 60.7018 283.31 60.7018C283.017 60.7018 282.764 60.7685 282.55 60.9018C282.344 61.0352 282.184 61.2118 282.07 61.4318C281.964 61.6518 281.91 61.8885 281.91 62.1418V65.0418H281ZM284.347 65.0418V63.9318H285.457V65.0418H284.347Z" fill="white"/>
<path d="M337.78 10.1282L335.31 3.07817H336.29L338.38 9.29817H338.02L340.24 3.07817H340.97L343.05 9.29817H342.73L344.89 3.07817H345.81L343.32 10.1282H342.51L340.48 4.17817H340.69L338.58 10.1282H337.78ZM346.893 10.1282V5.09817H347.803V10.1282H346.893ZM346.813 3.99817V3.01817H347.893V3.99817H346.813ZM349.324 10.1282V2.76817H350.234V10.1282H349.324ZM353.676 10.2182C353.236 10.2182 352.849 10.1148 352.516 9.90817C352.183 9.70151 351.923 9.40151 351.736 9.00817C351.549 8.61484 351.456 8.14817 351.456 7.60817C351.456 7.06817 351.549 6.60484 351.736 6.21817C351.923 5.82484 352.183 5.52484 352.516 5.31817C352.849 5.11151 353.236 5.00817 353.676 5.00817C354.116 5.00817 354.499 5.11817 354.826 5.33817C355.159 5.55817 355.383 5.86151 355.496 6.24817H355.376V2.76817H356.286V10.1282H355.386V8.95817H355.496C355.389 9.35151 355.169 9.66151 354.836 9.88817C354.509 10.1082 354.123 10.2182 353.676 10.2182ZM353.886 9.49817C354.339 9.49817 354.703 9.33817 354.976 9.01817C355.256 8.69817 355.396 8.22817 355.396 7.60817C355.396 6.98817 355.256 6.52151 354.976 6.20817C354.703 5.89484 354.339 5.73817 353.886 5.73817C353.433 5.73817 353.066 5.89484 352.786 6.20817C352.513 6.52151 352.376 6.98817 352.376 7.60817C352.376 8.22817 352.513 8.69817 352.786 9.01817C353.066 9.33817 353.433 9.49817 353.886 9.49817ZM360.547 10.1282V3.07817H363.417C364.177 3.07817 364.761 3.23817 365.167 3.55817C365.574 3.87817 365.777 4.32817 365.777 4.90817C365.777 5.34817 365.644 5.71484 365.377 6.00817C365.117 6.30151 364.761 6.49817 364.307 6.59817V6.44817C364.827 6.50817 365.231 6.68817 365.517 6.98817C365.811 7.28817 365.957 7.68484 365.957 8.17817C365.957 8.80484 365.747 9.28817 365.327 9.62817C364.907 9.96151 364.314 10.1282 363.547 10.1282H360.547ZM361.447 9.38817H363.457C363.951 9.38817 364.337 9.29484 364.617 9.10817C364.904 8.91484 365.047 8.59817 365.047 8.15817C365.047 7.71151 364.904 7.39484 364.617 7.20817C364.337 7.02151 363.951 6.92817 363.457 6.92817H361.447V9.38817ZM361.447 6.18817H363.287C363.814 6.18817 364.207 6.08817 364.467 5.88817C364.727 5.68151 364.857 5.38484 364.857 4.99817C364.857 4.61151 364.727 4.31817 364.467 4.11817C364.207 3.91151 363.814 3.80817 363.287 3.80817H361.447V6.18817ZM367.273 10.1282V6.28817C367.273 6.09484 367.267 5.89817 367.253 5.69817C367.24 5.49817 367.22 5.29817 367.193 5.09817H368.073L368.173 6.17817H368.053C368.207 5.79817 368.443 5.50817 368.763 5.30817C369.083 5.10817 369.457 5.00817 369.883 5.00817C370.477 5.00817 370.923 5.17151 371.223 5.49817C371.523 5.81817 371.673 6.31817 371.673 6.99817V10.1282H370.763V7.04817C370.763 6.58817 370.673 6.25817 370.493 6.05817C370.313 5.85151 370.033 5.74817 369.653 5.74817C369.2 5.74817 368.84 5.88484 368.573 6.15817C368.313 6.43151 368.183 6.80151 368.183 7.26817V10.1282H367.273ZM375.082 10.2182C374.642 10.2182 374.255 10.1148 373.922 9.90817C373.589 9.70151 373.329 9.40151 373.142 9.00817C372.955 8.61484 372.862 8.14817 372.862 7.60817C372.862 7.06817 372.955 6.60484 373.142 6.21817C373.329 5.82484 373.589 5.52484 373.922 5.31817C374.255 5.11151 374.642 5.00817 375.082 5.00817C375.522 5.00817 375.905 5.11817 376.232 5.33817C376.565 5.55817 376.789 5.86151 376.902 6.24817H376.782V2.76817H377.692V10.1282H376.792V8.95817H376.902C376.795 9.35151 376.575 9.66151 376.242 9.88817C375.915 10.1082 375.529 10.2182 375.082 10.2182ZM375.292 9.49817C375.745 9.49817 376.109 9.33817 376.382 9.01817C376.662 8.69817 376.802 8.22817 376.802 7.60817C376.802 6.98817 376.662 6.52151 376.382 6.20817C376.109 5.89484 375.745 5.73817 375.292 5.73817C374.839 5.73817 374.472 5.89484 374.192 6.20817C373.919 6.52151 373.782 6.98817 373.782 7.60817C373.782 8.22817 373.919 8.69817 374.192 9.01817C374.472 9.33817 374.839 9.49817 375.292 9.49817ZM381.954 10.1282V3.07817H384.344C385.13 3.07817 385.794 3.21484 386.334 3.48817C386.88 3.76151 387.294 4.16151 387.574 4.68817C387.854 5.20817 387.994 5.84484 387.994 6.59817C387.994 7.35151 387.854 7.99151 387.574 8.51817C387.294 9.04484 386.88 9.44484 386.334 9.71817C385.794 9.99151 385.13 10.1282 384.344 10.1282H381.954ZM382.884 9.33817H384.274C385.214 9.33817 385.91 9.11151 386.364 8.65817C386.817 8.20484 387.044 7.51817 387.044 6.59817C387.044 5.67817 386.817 4.99484 386.364 4.54817C385.91 4.09484 385.214 3.86817 384.274 3.86817H382.884V9.33817ZM389.344 10.1282V6.32817C389.344 6.12817 389.337 5.92484 389.324 5.71817C389.317 5.50484 389.3 5.29817 389.274 5.09817H390.154L390.264 6.35817L390.114 6.36817C390.18 6.06151 390.294 5.80817 390.454 5.60817C390.62 5.40151 390.817 5.25151 391.044 5.15817C391.277 5.05817 391.517 5.00817 391.764 5.00817C391.87 5.00817 391.96 5.01151 392.034 5.01817C392.107 5.02484 392.18 5.04151 392.254 5.06817L392.234 5.87817C392.134 5.83817 392.04 5.81484 391.954 5.80817C391.874 5.79484 391.774 5.78817 391.654 5.78817C391.36 5.78817 391.107 5.85484 390.894 5.98817C390.687 6.12151 390.527 6.29817 390.414 6.51817C390.307 6.73817 390.254 6.97484 390.254 7.22817V10.1282H389.344ZM392.69 10.1282V9.01817H393.8V10.1282H392.69Z" fill="white"/>
<path d="M380.286 246.49V247.17H376.958V246.49H378.206V242.458L377.046 243.178V242.418L378.558 241.474H379.038V246.49H380.286ZM385.083 246.49V247.17H381.755V246.49H383.003V242.458L381.843 243.178V242.418L383.355 241.474H383.835V246.49H385.083ZM387.808 241.41C388.512 241.41 389.053 241.65 389.432 242.13C389.81 242.61 390 243.298 390 244.194C390 244.829 389.909 245.375 389.728 245.834C389.552 246.287 389.293 246.634 388.952 246.874C388.616 247.114 388.213 247.234 387.744 247.234C387.408 247.234 387.082 247.175 386.768 247.058C386.453 246.935 386.178 246.765 385.944 246.546L386.232 245.938C386.498 246.157 386.752 246.317 386.992 246.418C387.237 246.514 387.48 246.562 387.72 246.562C388.184 246.562 388.541 246.359 388.792 245.954C389.048 245.543 389.176 244.962 389.176 244.21V244.186C389.058 244.463 388.866 244.682 388.6 244.842C388.338 245.002 388.037 245.082 387.696 245.082C387.354 245.082 387.05 245.007 386.784 244.858C386.517 244.703 386.309 244.49 386.16 244.218C386.01 243.941 385.936 243.623 385.936 243.266C385.936 242.909 386.016 242.591 386.176 242.314C386.336 242.031 386.557 241.81 386.84 241.65C387.128 241.49 387.45 241.41 387.808 241.41ZM387.848 244.41C388.189 244.41 388.466 244.303 388.68 244.09C388.893 243.871 389 243.591 389 243.25C389 242.903 388.893 242.623 388.68 242.41C388.466 242.191 388.189 242.082 387.848 242.082C387.512 242.082 387.242 242.189 387.04 242.402C386.837 242.615 386.736 242.898 386.736 243.25C386.736 243.597 386.837 243.877 387.04 244.09C387.248 244.303 387.517 244.41 387.848 244.41ZM392.781 247.234C392.119 247.234 391.615 246.986 391.269 246.49C390.922 245.994 390.749 245.271 390.749 244.322C390.749 243.373 390.922 242.65 391.269 242.154C391.615 241.658 392.119 241.41 392.781 241.41C393.442 241.41 393.946 241.658 394.293 242.154C394.639 242.645 394.813 243.365 394.813 244.314C394.813 245.269 394.639 245.994 394.293 246.49C393.946 246.986 393.442 247.234 392.781 247.234ZM392.781 246.57C393.191 246.57 393.493 246.389 393.685 246.026C393.882 245.658 393.981 245.087 393.981 244.314C393.981 243.541 393.885 242.975 393.693 242.618C393.501 242.261 393.197 242.082 392.781 242.082C392.37 242.082 392.066 242.263 391.869 242.626C391.677 242.983 391.581 243.546 391.581 244.314C391.581 245.087 391.677 245.658 391.869 246.026C392.066 246.389 392.37 246.57 392.781 246.57ZM399.537 246.49V247.17H395.801V246.554L397.761 244.402C398.012 244.125 398.193 243.874 398.305 243.65C398.423 243.421 398.481 243.194 398.481 242.97C398.481 242.682 398.399 242.463 398.233 242.314C398.068 242.159 397.828 242.082 397.513 242.082C396.985 242.082 396.457 242.29 395.929 242.706L395.633 242.098C395.857 241.89 396.143 241.725 396.489 241.602C396.836 241.474 397.185 241.41 397.537 241.41C398.081 241.41 398.511 241.546 398.825 241.818C399.145 242.09 399.305 242.458 399.305 242.922C399.305 243.253 399.233 243.567 399.089 243.866C398.945 244.159 398.705 244.487 398.369 244.85L396.849 246.49H399.537Z" fill="white"/>
<path d="M347.302 252.49V253.17H343.974V252.49H345.222V248.458L344.062 249.178V248.418L345.574 247.474H346.054V252.49H347.302ZM352.098 252.49V253.17H348.77V252.49H350.018V248.458L348.858 249.178V248.418L350.37 247.474H350.85V252.49H352.098ZM354.823 247.41C355.527 247.41 356.069 247.65 356.447 248.13C356.826 248.61 357.015 249.298 357.015 250.194C357.015 250.829 356.925 251.375 356.743 251.834C356.567 252.287 356.309 252.634 355.967 252.874C355.631 253.114 355.229 253.234 354.759 253.234C354.423 253.234 354.098 253.175 353.783 253.058C353.469 252.935 353.194 252.765 352.959 252.546L353.247 251.938C353.514 252.157 353.767 252.317 354.007 252.418C354.253 252.514 354.495 252.562 354.735 252.562C355.199 252.562 355.557 252.359 355.807 251.954C356.063 251.543 356.191 250.962 356.191 250.21V250.186C356.074 250.463 355.882 250.682 355.615 250.842C355.354 251.002 355.053 251.082 354.711 251.082C354.37 251.082 354.066 251.007 353.799 250.858C353.533 250.703 353.325 250.49 353.175 250.218C353.026 249.941 352.951 249.623 352.951 249.266C352.951 248.909 353.031 248.591 353.191 248.314C353.351 248.031 353.573 247.81 353.855 247.65C354.143 247.49 354.466 247.41 354.823 247.41ZM354.863 250.41C355.205 250.41 355.482 250.303 355.695 250.09C355.909 249.871 356.015 249.591 356.015 249.25C356.015 248.903 355.909 248.623 355.695 248.41C355.482 248.191 355.205 248.082 354.863 248.082C354.527 248.082 354.258 248.189 354.055 248.402C353.853 248.615 353.751 248.898 353.751 249.25C353.751 249.597 353.853 249.877 354.055 250.09C354.263 250.303 354.533 250.41 354.863 250.41ZM359.796 253.234C359.135 253.234 358.631 252.986 358.284 252.49C357.938 251.994 357.764 251.271 357.764 250.322C357.764 249.373 357.938 248.65 358.284 248.154C358.631 247.658 359.135 247.41 359.796 247.41C360.458 247.41 360.962 247.658 361.308 248.154C361.655 248.645 361.828 249.365 361.828 250.314C361.828 251.269 361.655 251.994 361.308 252.49C360.962 252.986 360.458 253.234 359.796 253.234ZM359.796 252.57C360.207 252.57 360.508 252.389 360.7 252.026C360.898 251.658 360.996 251.087 360.996 250.314C360.996 249.541 360.9 248.975 360.708 248.618C360.516 248.261 360.212 248.082 359.796 248.082C359.386 248.082 359.082 248.263 358.884 248.626C358.692 248.983 358.596 249.546 358.596 250.314C358.596 251.087 358.692 251.658 358.884 252.026C359.082 252.389 359.386 252.57 359.796 252.57ZM366.489 252.49V253.17H363.161V252.49H364.409V248.458L363.249 249.178V248.418L364.761 247.474H365.241V252.49H366.489Z" fill="white"/>
<path d="M209.892 239.363V240.043H206.564V239.363H207.812V235.331L206.652 236.051V235.291L208.164 234.347H208.644V239.363H209.892ZM214.689 239.363V240.043H211.361V239.363H212.609V235.331L211.449 236.051V235.291L212.961 234.347H213.441V239.363H214.689ZM217.413 234.283C218.117 234.283 218.659 234.523 219.037 235.003C219.416 235.483 219.605 236.171 219.605 237.067C219.605 237.702 219.515 238.249 219.333 238.707C219.157 239.161 218.899 239.507 218.557 239.747C218.221 239.987 217.819 240.107 217.349 240.107C217.013 240.107 216.688 240.049 216.373 239.931C216.059 239.809 215.784 239.638 215.549 239.419L215.837 238.811C216.104 239.03 216.357 239.19 216.597 239.291C216.843 239.387 217.085 239.435 217.325 239.435C217.789 239.435 218.147 239.233 218.397 238.827C218.653 238.417 218.781 237.835 218.781 237.083V237.059C218.664 237.337 218.472 237.555 218.205 237.715C217.944 237.875 217.643 237.955 217.301 237.955C216.96 237.955 216.656 237.881 216.389 237.731C216.123 237.577 215.915 237.363 215.765 237.091C215.616 236.814 215.541 236.497 215.541 236.139C215.541 235.782 215.621 235.465 215.781 235.187C215.941 234.905 216.163 234.683 216.445 234.523C216.733 234.363 217.056 234.283 217.413 234.283ZM217.453 237.283C217.795 237.283 218.072 237.177 218.285 236.963C218.499 236.745 218.605 236.465 218.605 236.123C218.605 235.777 218.499 235.497 218.285 235.283C218.072 235.065 217.795 234.955 217.453 234.955C217.117 234.955 216.848 235.062 216.645 235.275C216.443 235.489 216.341 235.771 216.341 236.123C216.341 236.47 216.443 236.75 216.645 236.963C216.853 237.177 217.123 237.283 217.453 237.283ZM222.386 240.107C221.725 240.107 221.221 239.859 220.874 239.363C220.528 238.867 220.354 238.145 220.354 237.195C220.354 236.246 220.528 235.523 220.874 235.027C221.221 234.531 221.725 234.283 222.386 234.283C223.048 234.283 223.552 234.531 223.898 235.027C224.245 235.518 224.418 236.238 224.418 237.187C224.418 238.142 224.245 238.867 223.898 239.363C223.552 239.859 223.048 240.107 222.386 240.107ZM222.386 239.443C222.797 239.443 223.098 239.262 223.29 238.899C223.488 238.531 223.586 237.961 223.586 237.187C223.586 236.414 223.49 235.849 223.298 235.491C223.106 235.134 222.802 234.955 222.386 234.955C221.976 234.955 221.672 235.137 221.474 235.499C221.282 235.857 221.186 236.419 221.186 237.187C221.186 237.961 221.282 238.531 221.474 238.899C221.672 239.262 221.976 239.443 222.386 239.443ZM228.023 237.115C228.354 237.211 228.607 237.377 228.783 237.611C228.959 237.846 229.047 238.142 229.047 238.499C229.047 238.995 228.871 239.387 228.519 239.675C228.173 239.958 227.701 240.099 227.103 240.099C226.725 240.099 226.362 240.041 226.015 239.923C225.674 239.801 225.389 239.63 225.159 239.411L225.455 238.803C225.967 239.219 226.509 239.427 227.079 239.427C227.858 239.427 228.247 239.099 228.247 238.443C228.247 238.123 228.146 237.886 227.943 237.731C227.741 237.571 227.434 237.491 227.023 237.491H226.327V236.819H226.895C227.29 236.819 227.591 236.737 227.799 236.571C228.007 236.406 228.111 236.166 228.111 235.851C228.111 235.563 228.023 235.342 227.847 235.187C227.677 235.033 227.434 234.955 227.119 234.955C226.586 234.955 226.058 235.163 225.535 235.579L225.239 234.971C225.463 234.758 225.746 234.59 226.087 234.467C226.434 234.345 226.791 234.283 227.159 234.283C227.693 234.283 228.117 234.417 228.431 234.683C228.751 234.945 228.911 235.299 228.911 235.747C228.911 236.073 228.834 236.355 228.679 236.595C228.525 236.835 228.306 237.009 228.023 237.115Z" fill="white"/>
<path d="M156.892 277.513V278.193H153.564V277.513H154.812V273.481L153.652 274.201V273.441L155.164 272.497H155.644V277.513H156.892ZM161.753 277.513V278.193H158.017V277.577L159.977 275.425C160.227 275.147 160.409 274.897 160.521 274.673C160.638 274.443 160.697 274.217 160.697 273.993C160.697 273.705 160.614 273.486 160.449 273.337C160.283 273.182 160.043 273.105 159.729 273.105C159.201 273.105 158.673 273.313 158.145 273.729L157.849 273.121C158.073 272.913 158.358 272.747 158.705 272.625C159.051 272.497 159.401 272.433 159.753 272.433C160.297 272.433 160.726 272.569 161.041 272.841C161.361 273.113 161.521 273.481 161.521 273.945C161.521 274.275 161.449 274.59 161.305 274.889C161.161 275.182 160.921 275.51 160.585 275.873L159.065 277.513H161.753ZM165.429 275.265C165.76 275.361 166.013 275.526 166.189 275.761C166.365 275.995 166.453 276.291 166.453 276.649C166.453 277.145 166.277 277.537 165.925 277.825C165.579 278.107 165.107 278.249 164.509 278.249C164.131 278.249 163.768 278.19 163.421 278.073C163.08 277.95 162.795 277.779 162.565 277.561L162.861 276.953C163.373 277.369 163.915 277.577 164.485 277.577C165.264 277.577 165.653 277.249 165.653 276.593C165.653 276.273 165.552 276.035 165.349 275.881C165.147 275.721 164.84 275.641 164.429 275.641H163.733V274.969H164.301C164.696 274.969 164.997 274.886 165.205 274.721C165.413 274.555 165.517 274.315 165.517 274.001C165.517 273.713 165.429 273.491 165.253 273.337C165.083 273.182 164.84 273.105 164.525 273.105C163.992 273.105 163.464 273.313 162.941 273.729L162.645 273.121C162.869 272.907 163.152 272.739 163.493 272.617C163.84 272.494 164.197 272.433 164.565 272.433C165.099 272.433 165.523 272.566 165.837 272.833C166.157 273.094 166.317 273.449 166.317 273.897C166.317 274.222 166.24 274.505 166.085 274.745C165.931 274.985 165.712 275.158 165.429 275.265ZM169.386 278.257C168.725 278.257 168.221 278.009 167.874 277.513C167.528 277.017 167.354 276.294 167.354 275.345C167.354 274.395 167.528 273.673 167.874 273.177C168.221 272.681 168.725 272.433 169.386 272.433C170.048 272.433 170.552 272.681 170.898 273.177C171.245 273.667 171.418 274.387 171.418 275.337C171.418 276.291 171.245 277.017 170.898 277.513C170.552 278.009 170.048 278.257 169.386 278.257ZM169.386 277.593C169.797 277.593 170.098 277.411 170.29 277.049C170.488 276.681 170.586 276.11 170.586 275.337C170.586 274.563 170.49 273.998 170.298 273.641C170.106 273.283 169.802 273.105 169.386 273.105C168.976 273.105 168.672 273.286 168.474 273.649C168.282 274.006 168.186 274.569 168.186 275.337C168.186 276.11 168.282 276.681 168.474 277.049C168.672 277.411 168.976 277.593 169.386 277.593ZM174.479 274.585C174.821 274.585 175.122 274.662 175.383 274.817C175.65 274.966 175.858 275.179 176.007 275.457C176.157 275.729 176.231 276.043 176.231 276.401C176.231 276.758 176.151 277.078 175.991 277.361C175.831 277.638 175.61 277.857 175.327 278.017C175.045 278.177 174.725 278.257 174.367 278.257C173.663 278.257 173.119 278.017 172.735 277.537C172.357 277.057 172.167 276.369 172.167 275.473C172.167 274.838 172.255 274.294 172.431 273.841C172.613 273.382 172.871 273.033 173.207 272.793C173.549 272.553 173.954 272.433 174.423 272.433C174.759 272.433 175.085 272.491 175.399 272.609C175.719 272.726 175.997 272.897 176.231 273.121L175.935 273.729C175.434 273.313 174.938 273.105 174.447 273.105C173.983 273.105 173.626 273.31 173.375 273.721C173.125 274.126 172.999 274.705 172.999 275.457V275.465C173.122 275.187 173.314 274.971 173.575 274.817C173.842 274.662 174.143 274.585 174.479 274.585ZM174.327 277.585C174.658 277.585 174.925 277.478 175.127 277.265C175.33 277.051 175.431 276.769 175.431 276.417C175.431 276.07 175.33 275.79 175.127 275.577C174.925 275.363 174.655 275.257 174.319 275.257C173.983 275.257 173.706 275.366 173.487 275.585C173.274 275.798 173.167 276.075 173.167 276.417C173.167 276.763 173.274 277.046 173.487 277.265C173.701 277.478 173.981 277.585 174.327 277.585Z" fill="white"/>
<path d="M107.892 257.49V258.17H104.564V257.49H105.812V253.458L104.652 254.178V253.418L106.164 252.474H106.644V257.49H107.892ZM112.753 257.49V258.17H109.017V257.554L110.977 255.402C111.227 255.125 111.409 254.874 111.521 254.65C111.638 254.421 111.697 254.194 111.697 253.97C111.697 253.682 111.614 253.463 111.449 253.314C111.283 253.159 111.043 253.082 110.729 253.082C110.201 253.082 109.673 253.29 109.145 253.706L108.849 253.098C109.073 252.89 109.358 252.725 109.705 252.602C110.051 252.474 110.401 252.41 110.753 252.41C111.297 252.41 111.726 252.546 112.041 252.818C112.361 253.09 112.521 253.458 112.521 253.922C112.521 254.253 112.449 254.567 112.305 254.866C112.161 255.159 111.921 255.487 111.585 255.85L110.065 257.49H112.753ZM116.429 255.242C116.76 255.338 117.013 255.503 117.189 255.738C117.365 255.973 117.453 256.269 117.453 256.626C117.453 257.122 117.277 257.514 116.925 257.802C116.579 258.085 116.107 258.226 115.509 258.226C115.131 258.226 114.768 258.167 114.421 258.05C114.08 257.927 113.795 257.757 113.565 257.538L113.861 256.93C114.373 257.346 114.915 257.554 115.485 257.554C116.264 257.554 116.653 257.226 116.653 256.57C116.653 256.25 116.552 256.013 116.349 255.858C116.147 255.698 115.84 255.618 115.429 255.618H114.733V254.946H115.301C115.696 254.946 115.997 254.863 116.205 254.698C116.413 254.533 116.517 254.293 116.517 253.978C116.517 253.69 116.429 253.469 116.253 253.314C116.083 253.159 115.84 253.082 115.525 253.082C114.992 253.082 114.464 253.29 113.941 253.706L113.645 253.098C113.869 252.885 114.152 252.717 114.493 252.594C114.84 252.471 115.197 252.41 115.565 252.41C116.099 252.41 116.523 252.543 116.837 252.81C117.157 253.071 117.317 253.426 117.317 253.874C117.317 254.199 117.24 254.482 117.085 254.722C116.931 254.962 116.712 255.135 116.429 255.242ZM122.282 257.49V258.17H118.954V257.49H120.202V253.458L119.042 254.178V253.418L120.554 252.474H121.034V257.49H122.282ZM125.183 258.234C124.522 258.234 124.018 257.986 123.671 257.49C123.325 256.994 123.151 256.271 123.151 255.322C123.151 254.373 123.325 253.65 123.671 253.154C124.018 252.658 124.522 252.41 125.183 252.41C125.845 252.41 126.349 252.658 126.695 253.154C127.042 253.645 127.215 254.365 127.215 255.314C127.215 256.269 127.042 256.994 126.695 257.49C126.349 257.986 125.845 258.234 125.183 258.234ZM125.183 257.57C125.594 257.57 125.895 257.389 126.087 257.026C126.285 256.658 126.383 256.087 126.383 255.314C126.383 254.541 126.287 253.975 126.095 253.618C125.903 253.261 125.599 253.082 125.183 253.082C124.773 253.082 124.469 253.263 124.271 253.626C124.079 253.983 123.983 254.546 123.983 255.314C123.983 256.087 124.079 256.658 124.271 257.026C124.469 257.389 124.773 257.57 125.183 257.57Z" fill="white"/>
<path d="M78.9913 217.481V218.161H75.6633V217.481H76.9113V213.449L75.7513 214.169V213.409L77.2633 212.465H77.7433V217.481H78.9913ZM83.8522 217.481V218.161H80.1162V217.545L82.0762 215.393C82.3269 215.116 82.5082 214.865 82.6202 214.641C82.7375 214.412 82.7962 214.185 82.7962 213.961C82.7962 213.673 82.7135 213.455 82.5482 213.305C82.3829 213.151 82.1429 213.073 81.8282 213.073C81.3002 213.073 80.7722 213.281 80.2442 213.697L79.9482 213.089C80.1722 212.881 80.4575 212.716 80.8042 212.593C81.1509 212.465 81.5002 212.401 81.8522 212.401C82.3962 212.401 82.8255 212.537 83.1402 212.809C83.4602 213.081 83.6202 213.449 83.6202 213.913C83.6202 214.244 83.5482 214.559 83.4042 214.857C83.2602 215.151 83.0202 215.479 82.6842 215.841L81.1642 217.481H83.8522ZM87.5291 215.233C87.8597 215.329 88.1131 215.495 88.2891 215.729C88.4651 215.964 88.5531 216.26 88.5531 216.617C88.5531 217.113 88.3771 217.505 88.0251 217.793C87.6784 218.076 87.2064 218.217 86.6091 218.217C86.2304 218.217 85.8677 218.159 85.5211 218.041C85.1797 217.919 84.8944 217.748 84.6651 217.529L84.9611 216.921C85.4731 217.337 86.0144 217.545 86.5851 217.545C87.3637 217.545 87.7531 217.217 87.7531 216.561C87.7531 216.241 87.6517 216.004 87.4491 215.849C87.2464 215.689 86.9397 215.609 86.5291 215.609H85.8331V214.937H86.4011C86.7957 214.937 87.0971 214.855 87.3051 214.689C87.5131 214.524 87.6171 214.284 87.6171 213.969C87.6171 213.681 87.5291 213.46 87.3531 213.305C87.1824 213.151 86.9397 213.073 86.6251 213.073C86.0917 213.073 85.5637 213.281 85.0411 213.697L84.7451 213.089C84.9691 212.876 85.2517 212.708 85.5931 212.585C85.9397 212.463 86.2971 212.401 86.6651 212.401C87.1984 212.401 87.6224 212.535 87.9371 212.801C88.2571 213.063 88.4171 213.417 88.4171 213.865C88.4171 214.191 88.3397 214.473 88.1851 214.713C88.0304 214.953 87.8117 215.127 87.5291 215.233ZM93.3819 217.481V218.161H90.0539V217.481H91.3019V213.449L90.1419 214.169V213.409L91.6539 212.465H92.1339V217.481H93.3819ZM98.4508 216.977H97.6108V218.161H96.7948V216.977H94.2428V216.361L96.9468 212.465H97.6108V216.313H98.4508V216.977ZM96.7948 216.313V213.801L95.0508 216.313H96.7948Z" fill="white"/>
<path d="M46.0604 206.49V207.17H42.7324V206.49H43.9804V202.458L42.8204 203.178V202.418L44.3324 201.474H44.8124V206.49H46.0604ZM50.9213 206.49V207.17H47.1853V206.554L49.1453 204.402C49.3959 204.125 49.5773 203.874 49.6893 203.65C49.8066 203.421 49.8653 203.194 49.8653 202.97C49.8653 202.682 49.7826 202.463 49.6173 202.314C49.4519 202.159 49.2119 202.082 48.8973 202.082C48.3693 202.082 47.8413 202.29 47.3133 202.706L47.0173 202.098C47.2413 201.89 47.5266 201.725 47.8733 201.602C48.2199 201.474 48.5693 201.41 48.9213 201.41C49.4653 201.41 49.8946 201.546 50.2093 201.818C50.5293 202.09 50.6893 202.458 50.6893 202.922C50.6893 203.253 50.6173 203.567 50.4733 203.866C50.3293 204.159 50.0893 204.487 49.7533 204.85L48.2333 206.49H50.9213ZM54.5982 204.242C54.9288 204.338 55.1822 204.503 55.3582 204.738C55.5342 204.973 55.6222 205.269 55.6222 205.626C55.6222 206.122 55.4462 206.514 55.0942 206.802C54.7475 207.085 54.2755 207.226 53.6782 207.226C53.2995 207.226 52.9368 207.167 52.5902 207.05C52.2488 206.927 51.9635 206.757 51.7342 206.538L52.0302 205.93C52.5422 206.346 53.0835 206.554 53.6542 206.554C54.4328 206.554 54.8222 206.226 54.8222 205.57C54.8222 205.25 54.7208 205.013 54.5182 204.858C54.3155 204.698 54.0088 204.618 53.5982 204.618H52.9022V203.946H53.4702C53.8648 203.946 54.1662 203.863 54.3742 203.698C54.5822 203.533 54.6862 203.293 54.6862 202.978C54.6862 202.69 54.5982 202.469 54.4222 202.314C54.2515 202.159 54.0088 202.082 53.6942 202.082C53.1608 202.082 52.6328 202.29 52.1102 202.706L51.8142 202.098C52.0382 201.885 52.3208 201.717 52.6622 201.594C53.0088 201.471 53.3662 201.41 53.7342 201.41C54.2675 201.41 54.6915 201.543 55.0062 201.81C55.3262 202.071 55.4862 202.426 55.4862 202.874C55.4862 203.199 55.4088 203.482 55.2542 203.722C55.0995 203.962 54.8808 204.135 54.5982 204.242ZM60.451 206.49V207.17H57.123V206.49H58.371V202.458L57.211 203.178V202.418L58.723 201.474H59.203V206.49H60.451ZM64.2639 204.242C64.6319 204.343 64.9172 204.517 65.1199 204.762C65.3279 205.007 65.4319 205.303 65.4319 205.65C65.4319 206.141 65.2426 206.527 64.8639 206.81C64.4906 207.087 63.9866 207.226 63.3519 207.226C62.7172 207.226 62.2106 207.087 61.8319 206.81C61.4586 206.527 61.2719 206.141 61.2719 205.65C61.2719 205.298 61.3759 204.999 61.5839 204.754C61.7919 204.509 62.0826 204.338 62.4559 204.242C62.1252 204.135 61.8666 203.967 61.6799 203.738C61.4986 203.509 61.4079 203.239 61.4079 202.93C61.4079 202.626 61.4906 202.359 61.6559 202.13C61.8212 201.901 62.0506 201.725 62.3439 201.602C62.6372 201.474 62.9732 201.41 63.3519 201.41C63.7306 201.41 64.0666 201.474 64.3599 201.602C64.6532 201.725 64.8826 201.901 65.0479 202.13C65.2132 202.359 65.2959 202.626 65.2959 202.93C65.2959 203.239 65.2052 203.511 65.0239 203.746C64.8426 203.975 64.5892 204.141 64.2639 204.242ZM62.1999 203.002C62.1999 203.279 62.3039 203.506 62.5119 203.682C62.7199 203.853 62.9999 203.962 63.3519 204.01C63.7039 203.962 63.9839 203.853 64.1919 203.682C64.3999 203.506 64.5039 203.279 64.5039 203.002C64.5039 202.709 64.3999 202.482 64.1919 202.322C63.9892 202.157 63.7092 202.074 63.3519 202.074C62.9946 202.074 62.7119 202.157 62.5039 202.322C62.3012 202.482 62.1999 202.709 62.1999 203.002ZM63.3519 206.562C63.7626 206.562 64.0799 206.479 64.3039 206.314C64.5279 206.149 64.6399 205.909 64.6399 205.594C64.6399 205.301 64.5226 205.069 64.2879 204.898C64.0586 204.722 63.7466 204.61 63.3519 204.562C62.9572 204.61 62.6426 204.722 62.4079 204.898C62.1786 205.069 62.0639 205.301 62.0639 205.594C62.0639 205.909 62.1759 206.149 62.3999 206.314C62.6239 206.479 62.9412 206.562 63.3519 206.562Z" fill="white"/>
<path d="M4.38389 184.481V185.161H1.05589V184.481H2.30389V180.449L1.14389 181.169V180.409L2.65589 179.465H3.13589V184.481H4.38389ZM9.24477 184.481V185.161H5.50877V184.545L7.46877 182.393C7.71943 182.116 7.90077 181.865 8.01277 181.641C8.1301 181.412 8.18877 181.185 8.18877 180.961C8.18877 180.673 8.1061 180.455 7.94077 180.305C7.77543 180.151 7.53543 180.073 7.22077 180.073C6.69277 180.073 6.16477 180.281 5.63677 180.697L5.34077 180.089C5.56477 179.881 5.8501 179.716 6.19677 179.593C6.54343 179.465 6.89277 179.401 7.24477 179.401C7.78877 179.401 8.2181 179.537 8.53277 179.809C8.85277 180.081 9.01277 180.449 9.01277 180.913C9.01277 181.244 8.94077 181.559 8.79677 181.857C8.65277 182.151 8.41277 182.479 8.07677 182.841L6.55677 184.481H9.24477ZM12.9216 182.233C13.2523 182.329 13.5056 182.495 13.6816 182.729C13.8576 182.964 13.9456 183.26 13.9456 183.617C13.9456 184.113 13.7696 184.505 13.4176 184.793C13.071 185.076 12.599 185.217 12.0016 185.217C11.623 185.217 11.2603 185.159 10.9136 185.041C10.5723 184.919 10.287 184.748 10.0576 184.529L10.3536 183.921C10.8656 184.337 11.407 184.545 11.9776 184.545C12.7563 184.545 13.1456 184.217 13.1456 183.561C13.1456 183.241 13.0443 183.004 12.8416 182.849C12.639 182.689 12.3323 182.609 11.9216 182.609H11.2256V181.937H11.7936C12.1883 181.937 12.4896 181.855 12.6976 181.689C12.9056 181.524 13.0096 181.284 13.0096 180.969C13.0096 180.681 12.9216 180.46 12.7456 180.305C12.575 180.151 12.3323 180.073 12.0176 180.073C11.4843 180.073 10.9563 180.281 10.4336 180.697L10.1376 180.089C10.3616 179.876 10.6443 179.708 10.9856 179.585C11.3323 179.463 11.6896 179.401 12.0576 179.401C12.591 179.401 13.015 179.535 13.3296 179.801C13.6496 180.063 13.8096 180.417 13.8096 180.865C13.8096 181.191 13.7323 181.473 13.5776 181.713C13.423 181.953 13.2043 182.127 12.9216 182.233ZM18.8385 184.481V185.161H15.1025V184.545L17.0625 182.393C17.3132 182.116 17.4945 181.865 17.6065 181.641C17.7238 181.412 17.7825 181.185 17.7825 180.961C17.7825 180.673 17.6998 180.455 17.5345 180.305C17.3692 180.151 17.1292 180.073 16.8145 180.073C16.2865 180.073 15.7585 180.281 15.2305 180.697L14.9345 180.089C15.1585 179.881 15.4438 179.716 15.7905 179.593C16.1372 179.465 16.4865 179.401 16.8385 179.401C17.3825 179.401 17.8118 179.537 18.1265 179.809C18.4465 180.081 18.6065 180.449 18.6065 180.913C18.6065 181.244 18.5345 181.559 18.3905 181.857C18.2465 182.151 18.0065 182.479 17.6705 182.841L16.1505 184.481H18.8385ZM23.6354 184.481V185.161H19.8994V184.545L21.8594 182.393C22.1101 182.116 22.2914 181.865 22.4034 181.641C22.5207 181.412 22.5794 181.185 22.5794 180.961C22.5794 180.673 22.4967 180.455 22.3314 180.305C22.1661 180.151 21.9261 180.073 21.6114 180.073C21.0834 180.073 20.5554 180.281 20.0274 180.697L19.7314 180.089C19.9554 179.881 20.2407 179.716 20.5874 179.593C20.9341 179.465 21.2834 179.401 21.6354 179.401C22.1794 179.401 22.6087 179.537 22.9234 179.809C23.2434 180.081 23.4034 180.449 23.4034 180.913C23.4034 181.244 23.3314 181.559 23.1874 181.857C23.0434 182.151 22.8034 182.479 22.4674 182.841L20.9474 184.481H23.6354Z" fill="white"/>
<path d="M173.942 209.481V210.161H170.614V209.481H171.862V205.449L170.702 206.169V205.409L172.214 204.465H172.694V209.481H173.942ZM178.802 209.481V210.161H175.066V209.545L177.026 207.393C177.277 207.116 177.458 206.865 177.57 206.641C177.688 206.412 177.746 206.185 177.746 205.961C177.746 205.673 177.664 205.455 177.498 205.305C177.333 205.151 177.093 205.073 176.778 205.073C176.25 205.073 175.722 205.281 175.194 205.697L174.898 205.089C175.122 204.881 175.408 204.716 175.754 204.593C176.101 204.465 176.45 204.401 176.802 204.401C177.346 204.401 177.776 204.537 178.09 204.809C178.41 205.081 178.57 205.449 178.57 205.913C178.57 206.244 178.498 206.559 178.354 206.857C178.21 207.151 177.97 207.479 177.634 207.841L176.114 209.481H178.802ZM182.479 207.233C182.81 207.329 183.063 207.495 183.239 207.729C183.415 207.964 183.503 208.26 183.503 208.617C183.503 209.113 183.327 209.505 182.975 209.793C182.629 210.076 182.157 210.217 181.559 210.217C181.181 210.217 180.818 210.159 180.471 210.041C180.13 209.919 179.845 209.748 179.615 209.529L179.911 208.921C180.423 209.337 180.965 209.545 181.535 209.545C182.314 209.545 182.703 209.217 182.703 208.561C182.703 208.241 182.602 208.004 182.399 207.849C182.197 207.689 181.89 207.609 181.479 207.609H180.783V206.937H181.351C181.746 206.937 182.047 206.855 182.255 206.689C182.463 206.524 182.567 206.284 182.567 205.969C182.567 205.681 182.479 205.46 182.303 205.305C182.133 205.151 181.89 205.073 181.575 205.073C181.042 205.073 180.514 205.281 179.991 205.697L179.695 205.089C179.919 204.876 180.202 204.708 180.543 204.585C180.89 204.463 181.247 204.401 181.615 204.401C182.149 204.401 182.573 204.535 182.887 204.801C183.207 205.063 183.367 205.417 183.367 205.865C183.367 206.191 183.29 206.473 183.135 206.713C182.981 206.953 182.762 207.127 182.479 207.233ZM186.436 210.225C185.775 210.225 185.271 209.977 184.924 209.481C184.577 208.985 184.404 208.263 184.404 207.313C184.404 206.364 184.577 205.641 184.924 205.145C185.271 204.649 185.775 204.401 186.436 204.401C187.097 204.401 187.601 204.649 187.948 205.145C188.295 205.636 188.468 206.356 188.468 207.305C188.468 208.26 188.295 208.985 187.948 209.481C187.601 209.977 187.097 210.225 186.436 210.225ZM186.436 209.561C186.847 209.561 187.148 209.38 187.34 209.017C187.537 208.649 187.636 208.079 187.636 207.305C187.636 206.532 187.54 205.967 187.348 205.609C187.156 205.252 186.852 205.073 186.436 205.073C186.025 205.073 185.721 205.255 185.524 205.617C185.332 205.975 185.236 206.537 185.236 207.305C185.236 208.079 185.332 208.649 185.524 209.017C185.721 209.38 186.025 209.561 186.436 209.561ZM193.161 204.465V205.081L190.529 210.161H189.641L192.265 205.145H189.305V204.465H193.161Z" fill="white"/>
<path d="M122.907 184.481V185.161H119.579V184.481H120.827V180.449L119.667 181.169V180.409L121.179 179.465H121.659V184.481H122.907ZM127.768 184.481V185.161H124.032V184.545L125.992 182.393C126.243 182.116 126.424 181.865 126.536 181.641C126.654 181.412 126.712 181.185 126.712 180.961C126.712 180.673 126.63 180.455 126.464 180.305C126.299 180.151 126.059 180.073 125.744 180.073C125.216 180.073 124.688 180.281 124.16 180.697L123.864 180.089C124.088 179.881 124.374 179.716 124.72 179.593C125.067 179.465 125.416 179.401 125.768 179.401C126.312 179.401 126.742 179.537 127.056 179.809C127.376 180.081 127.536 180.449 127.536 180.913C127.536 181.244 127.464 181.559 127.32 181.857C127.176 182.151 126.936 182.479 126.6 182.841L125.08 184.481H127.768ZM131.445 182.233C131.776 182.329 132.029 182.495 132.205 182.729C132.381 182.964 132.469 183.26 132.469 183.617C132.469 184.113 132.293 184.505 131.941 184.793C131.594 185.076 131.122 185.217 130.525 185.217C130.146 185.217 129.784 185.159 129.437 185.041C129.096 184.919 128.81 184.748 128.581 184.529L128.877 183.921C129.389 184.337 129.93 184.545 130.501 184.545C131.28 184.545 131.669 184.217 131.669 183.561C131.669 183.241 131.568 183.004 131.365 182.849C131.162 182.689 130.856 182.609 130.445 182.609H129.749V181.937H130.317C130.712 181.937 131.013 181.855 131.221 181.689C131.429 181.524 131.533 181.284 131.533 180.969C131.533 180.681 131.445 180.46 131.269 180.305C131.098 180.151 130.856 180.073 130.541 180.073C130.008 180.073 129.48 180.281 128.957 180.697L128.661 180.089C128.885 179.876 129.168 179.708 129.509 179.585C129.856 179.463 130.213 179.401 130.581 179.401C131.114 179.401 131.538 179.535 131.853 179.801C132.173 180.063 132.333 180.417 132.333 180.865C132.333 181.191 132.256 181.473 132.101 181.713C131.946 181.953 131.728 182.127 131.445 182.233ZM137.298 184.481V185.161H133.97V184.481H135.218V180.449L134.058 181.169V180.409L135.57 179.465H136.05V184.481H137.298ZM142.095 184.481V185.161H138.767V184.481H140.015V180.449L138.855 181.169V180.409L140.367 179.465H140.847V184.481H142.095Z" fill="white"/>
<path d="M93.1566 170.448V171.128H89.8286V170.448H91.0766V166.416L89.9166 167.136V166.376L91.4286 165.432H91.9086V170.448H93.1566ZM98.0175 170.448V171.128H94.2815V170.512L96.2415 168.36C96.4921 168.083 96.6735 167.832 96.7855 167.608C96.9028 167.379 96.9615 167.152 96.9615 166.928C96.9615 166.64 96.8788 166.422 96.7135 166.272C96.5481 166.118 96.3081 166.04 95.9935 166.04C95.4655 166.04 94.9375 166.248 94.4095 166.664L94.1135 166.056C94.3375 165.848 94.6228 165.683 94.9695 165.56C95.3161 165.432 95.6655 165.368 96.0175 165.368C96.5615 165.368 96.9908 165.504 97.3055 165.776C97.6255 166.048 97.7855 166.416 97.7855 166.88C97.7855 167.211 97.7135 167.526 97.5695 167.824C97.4255 168.118 97.1855 168.446 96.8495 168.808L95.3295 170.448H98.0175ZM101.694 168.2C102.025 168.296 102.278 168.462 102.454 168.696C102.63 168.931 102.718 169.227 102.718 169.584C102.718 170.08 102.542 170.472 102.19 170.76C101.844 171.043 101.372 171.184 100.774 171.184C100.396 171.184 100.033 171.126 99.6863 171.008C99.345 170.886 99.0597 170.715 98.8303 170.496L99.1263 169.888C99.6383 170.304 100.18 170.512 100.75 170.512C101.529 170.512 101.918 170.184 101.918 169.528C101.918 169.208 101.817 168.971 101.614 168.816C101.412 168.656 101.105 168.576 100.694 168.576H99.9983V167.904H100.566C100.961 167.904 101.262 167.822 101.47 167.656C101.678 167.491 101.782 167.251 101.782 166.936C101.782 166.648 101.694 166.427 101.518 166.272C101.348 166.118 101.105 166.04 100.79 166.04C100.257 166.04 99.729 166.248 99.2063 166.664L98.9103 166.056C99.1343 165.843 99.417 165.675 99.7583 165.552C100.105 165.43 100.462 165.368 100.83 165.368C101.364 165.368 101.788 165.502 102.102 165.768C102.422 166.03 102.582 166.384 102.582 166.832C102.582 167.158 102.505 167.44 102.35 167.68C102.196 167.92 101.977 168.094 101.694 168.2ZM107.547 170.448V171.128H104.219V170.448H105.467V166.416L104.307 167.136V166.376L105.819 165.432H106.299V170.448H107.547ZM110.72 167.52C111.077 167.52 111.389 167.598 111.656 167.752C111.928 167.902 112.136 168.115 112.28 168.392C112.429 168.664 112.504 168.979 112.504 169.336C112.504 169.704 112.421 170.027 112.256 170.304C112.096 170.582 111.864 170.798 111.56 170.952C111.256 171.107 110.901 171.184 110.496 171.184C110.144 171.184 109.797 171.123 109.456 171C109.115 170.878 108.832 170.71 108.608 170.496L108.896 169.888C109.424 170.304 109.96 170.512 110.504 170.512C110.883 170.512 111.176 170.411 111.384 170.208C111.597 170 111.704 169.715 111.704 169.352C111.704 169.006 111.597 168.726 111.384 168.512C111.176 168.299 110.896 168.192 110.544 168.192C110.032 168.192 109.621 168.387 109.312 168.776H108.776V165.432H112.264V166.096H109.592V167.904C109.896 167.648 110.272 167.52 110.72 167.52Z" fill="white"/>
<path d="M51.7062 153.018V153.698H48.3782V153.018H49.6262V148.986L48.4662 149.706V148.946L49.9782 148.002H50.4582V153.018H51.7062ZM56.567 153.018V153.698H52.831V153.082L54.791 150.93C55.0417 150.653 55.223 150.402 55.335 150.178C55.4524 149.949 55.511 149.722 55.511 149.498C55.511 149.21 55.4284 148.991 55.263 148.842C55.0977 148.687 54.8577 148.61 54.543 148.61C54.015 148.61 53.487 148.818 52.959 149.234L52.663 148.626C52.887 148.418 53.1724 148.253 53.519 148.13C53.8657 148.002 54.215 147.938 54.567 147.938C55.111 147.938 55.5404 148.074 55.855 148.346C56.175 148.618 56.335 148.986 56.335 149.45C56.335 149.781 56.263 150.095 56.119 150.394C55.975 150.687 55.735 151.015 55.399 151.378L53.879 153.018H56.567ZM60.2439 150.77C60.5746 150.866 60.8279 151.031 61.0039 151.266C61.1799 151.501 61.2679 151.797 61.2679 152.154C61.2679 152.65 61.0919 153.042 60.7399 153.33C60.3932 153.613 59.9212 153.754 59.3239 153.754C58.9452 153.754 58.5826 153.695 58.2359 153.578C57.8946 153.455 57.6092 153.285 57.3799 153.066L57.6759 152.458C58.1879 152.874 58.7292 153.082 59.2999 153.082C60.0786 153.082 60.4679 152.754 60.4679 152.098C60.4679 151.778 60.3666 151.541 60.1639 151.386C59.9612 151.226 59.6546 151.146 59.2439 151.146H58.5479V150.474H59.1159C59.5106 150.474 59.8119 150.391 60.0199 150.226C60.2279 150.061 60.3319 149.821 60.3319 149.506C60.3319 149.218 60.2439 148.997 60.0679 148.842C59.8972 148.687 59.6546 148.61 59.3399 148.61C58.8066 148.61 58.2786 148.818 57.7559 149.234L57.4599 148.626C57.6839 148.413 57.9666 148.245 58.3079 148.122C58.6546 147.999 59.0119 147.938 59.3799 147.938C59.9132 147.938 60.3372 148.071 60.6519 148.338C60.9719 148.599 61.1319 148.954 61.1319 149.402C61.1319 149.727 61.0546 150.01 60.8999 150.25C60.7452 150.49 60.5266 150.663 60.2439 150.77ZM66.1608 153.018V153.698H62.4248V153.082L64.3848 150.93C64.6354 150.653 64.8168 150.402 64.9288 150.178C65.0461 149.949 65.1048 149.722 65.1048 149.498C65.1048 149.21 65.0221 148.991 64.8568 148.842C64.6914 148.687 64.4514 148.61 64.1368 148.61C63.6088 148.61 63.0808 148.818 62.5528 149.234L62.2568 148.626C62.4808 148.418 62.7661 148.253 63.1128 148.13C63.4594 148.002 63.8088 147.938 64.1608 147.938C64.7048 147.938 65.1341 148.074 65.4488 148.346C65.7688 148.618 65.9288 148.986 65.9288 149.45C65.9288 149.781 65.8568 150.095 65.7128 150.394C65.5688 150.687 65.3288 151.015 64.9928 151.378L63.4728 153.018H66.1608ZM69.8377 150.77C70.1683 150.866 70.4217 151.031 70.5977 151.266C70.7737 151.501 70.8617 151.797 70.8617 152.154C70.8617 152.65 70.6857 153.042 70.3337 153.33C69.987 153.613 69.515 153.754 68.9177 153.754C68.539 153.754 68.1763 153.695 67.8297 153.578C67.4883 153.455 67.203 153.285 66.9737 153.066L67.2697 152.458C67.7817 152.874 68.323 153.082 68.8937 153.082C69.6723 153.082 70.0617 152.754 70.0617 152.098C70.0617 151.778 69.9603 151.541 69.7577 151.386C69.555 151.226 69.2483 151.146 68.8377 151.146H68.1417V150.474H68.7097C69.1043 150.474 69.4057 150.391 69.6137 150.226C69.8217 150.061 69.9257 149.821 69.9257 149.506C69.9257 149.218 69.8377 148.997 69.6617 148.842C69.491 148.687 69.2483 148.61 68.9337 148.61C68.4003 148.61 67.8723 148.818 67.3497 149.234L67.0537 148.626C67.2777 148.413 67.5603 148.245 67.9017 148.122C68.2483 147.999 68.6057 147.938 68.9737 147.938C69.507 147.938 69.931 148.071 70.2457 148.338C70.5657 148.599 70.7257 148.954 70.7257 149.402C70.7257 149.727 70.6483 150.01 70.4937 150.25C70.339 150.49 70.1203 150.663 69.8377 150.77Z" fill="white"/>
<path d="M231.907 212.49V213.17H228.579V212.49H229.827V208.458L228.667 209.178V208.418L230.179 207.474H230.659V212.49H231.907ZM236.704 212.49V213.17H233.376V212.49H234.624V208.458L233.464 209.178V208.418L234.976 207.474H235.456V212.49H236.704ZM239.429 207.41C240.133 207.41 240.674 207.65 241.053 208.13C241.432 208.61 241.621 209.298 241.621 210.194C241.621 210.829 241.53 211.375 241.349 211.834C241.173 212.287 240.914 212.634 240.573 212.874C240.237 213.114 239.834 213.234 239.365 213.234C239.029 213.234 238.704 213.175 238.389 213.058C238.074 212.935 237.8 212.765 237.565 212.546L237.853 211.938C238.12 212.157 238.373 212.317 238.613 212.418C238.858 212.514 239.101 212.562 239.341 212.562C239.805 212.562 240.162 212.359 240.413 211.954C240.669 211.543 240.797 210.962 240.797 210.21V210.186C240.68 210.463 240.488 210.682 240.221 210.842C239.96 211.002 239.658 211.082 239.317 211.082C238.976 211.082 238.672 211.007 238.405 210.858C238.138 210.703 237.93 210.49 237.781 210.218C237.632 209.941 237.557 209.623 237.557 209.266C237.557 208.909 237.637 208.591 237.797 208.314C237.957 208.031 238.178 207.81 238.461 207.65C238.749 207.49 239.072 207.41 239.429 207.41ZM239.469 210.41C239.81 210.41 240.088 210.303 240.301 210.09C240.514 209.871 240.621 209.591 240.621 209.25C240.621 208.903 240.514 208.623 240.301 208.41C240.088 208.191 239.81 208.082 239.469 208.082C239.133 208.082 238.864 208.189 238.661 208.402C238.458 208.615 238.357 208.898 238.357 209.25C238.357 209.597 238.458 209.877 238.661 210.09C238.869 210.303 239.138 210.41 239.469 210.41ZM244.402 213.234C243.741 213.234 243.237 212.986 242.89 212.49C242.543 211.994 242.37 211.271 242.37 210.322C242.37 209.373 242.543 208.65 242.89 208.154C243.237 207.658 243.741 207.41 244.402 207.41C245.063 207.41 245.567 207.658 245.914 208.154C246.261 208.645 246.434 209.365 246.434 210.314C246.434 211.269 246.261 211.994 245.914 212.49C245.567 212.986 245.063 213.234 244.402 213.234ZM244.402 212.57C244.813 212.57 245.114 212.389 245.306 212.026C245.503 211.658 245.602 211.087 245.602 210.314C245.602 209.541 245.506 208.975 245.314 208.618C245.122 208.261 244.818 208.082 244.402 208.082C243.991 208.082 243.687 208.263 243.49 208.626C243.298 208.983 243.202 209.546 243.202 210.314C243.202 211.087 243.298 211.658 243.49 212.026C243.687 212.389 243.991 212.57 244.402 212.57ZM251.127 207.474V208.09L248.495 213.17H247.607L250.231 208.154H247.271V207.474H251.127Z" fill="white"/>
<path d="M264.838 215.78V216.46H261.51V215.78H262.758V211.748L261.598 212.468V211.708L263.11 210.764H263.59V215.78H264.838ZM269.635 215.78V216.46H266.307V215.78H267.555V211.748L266.395 212.468V211.708L267.907 210.764H268.387V215.78H269.635ZM272.36 210.7C273.064 210.7 273.606 210.94 273.984 211.42C274.363 211.9 274.552 212.588 274.552 213.484C274.552 214.119 274.462 214.666 274.28 215.124C274.104 215.578 273.846 215.924 273.504 216.164C273.168 216.404 272.766 216.524 272.296 216.524C271.96 216.524 271.635 216.466 271.32 216.348C271.006 216.226 270.731 216.055 270.496 215.836L270.784 215.228C271.051 215.447 271.304 215.607 271.544 215.708C271.79 215.804 272.032 215.852 272.272 215.852C272.736 215.852 273.094 215.65 273.344 215.244C273.6 214.834 273.728 214.252 273.728 213.5V213.476C273.611 213.754 273.419 213.972 273.152 214.132C272.891 214.292 272.59 214.372 272.248 214.372C271.907 214.372 271.603 214.298 271.336 214.148C271.07 213.994 270.862 213.78 270.712 213.508C270.563 213.231 270.488 212.914 270.488 212.556C270.488 212.199 270.568 211.882 270.728 211.604C270.888 211.322 271.11 211.1 271.392 210.94C271.68 210.78 272.003 210.7 272.36 210.7ZM272.4 213.7C272.742 213.7 273.019 213.594 273.232 213.38C273.446 213.162 273.552 212.882 273.552 212.54C273.552 212.194 273.446 211.914 273.232 211.7C273.019 211.482 272.742 211.372 272.4 211.372C272.064 211.372 271.795 211.479 271.592 211.692C271.39 211.906 271.288 212.188 271.288 212.54C271.288 212.887 271.39 213.167 271.592 213.38C271.8 213.594 272.07 213.7 272.4 213.7ZM279.229 215.78V216.46H275.901V215.78H277.149V211.748L275.989 212.468V211.708L277.501 210.764H277.981V215.78H279.229ZM284.026 215.78V216.46H280.698V215.78H281.946V211.748L280.786 212.468V211.708L282.298 210.764H282.778V215.78H284.026Z" fill="white"/>
<path d="M312.892 196.486V197.166H309.564V196.486H310.812V192.454L309.652 193.174V192.414L311.164 191.47H311.644V196.486H312.892ZM317.689 196.486V197.166H314.361V196.486H315.609V192.454L314.449 193.174V192.414L315.961 191.47H316.441V196.486H317.689ZM320.413 191.406C321.117 191.406 321.659 191.646 322.037 192.126C322.416 192.606 322.605 193.294 322.605 194.19C322.605 194.824 322.515 195.371 322.333 195.83C322.157 196.283 321.899 196.63 321.557 196.87C321.221 197.11 320.819 197.23 320.349 197.23C320.013 197.23 319.688 197.171 319.373 197.054C319.059 196.931 318.784 196.76 318.549 196.542L318.837 195.934C319.104 196.152 319.357 196.312 319.597 196.414C319.843 196.51 320.085 196.558 320.325 196.558C320.789 196.558 321.147 196.355 321.397 195.95C321.653 195.539 321.781 194.958 321.781 194.206V194.182C321.664 194.459 321.472 194.678 321.205 194.838C320.944 194.998 320.643 195.078 320.301 195.078C319.96 195.078 319.656 195.003 319.389 194.854C319.123 194.699 318.915 194.486 318.765 194.214C318.616 193.936 318.541 193.619 318.541 193.262C318.541 192.904 318.621 192.587 318.781 192.31C318.941 192.027 319.163 191.806 319.445 191.646C319.733 191.486 320.056 191.406 320.413 191.406ZM320.453 194.406C320.795 194.406 321.072 194.299 321.285 194.086C321.499 193.867 321.605 193.587 321.605 193.246C321.605 192.899 321.499 192.619 321.285 192.406C321.072 192.187 320.795 192.078 320.453 192.078C320.117 192.078 319.848 192.184 319.645 192.398C319.443 192.611 319.341 192.894 319.341 193.246C319.341 193.592 319.443 193.872 319.645 194.086C319.853 194.299 320.123 194.406 320.453 194.406ZM327.282 196.486V197.166H323.954V196.486H325.202V192.454L324.042 193.174V192.414L325.554 191.47H326.034V196.486H327.282ZM330.455 193.558C330.813 193.558 331.125 193.635 331.391 193.79C331.663 193.939 331.871 194.152 332.015 194.43C332.165 194.702 332.239 195.016 332.239 195.374C332.239 195.742 332.157 196.064 331.991 196.342C331.831 196.619 331.599 196.835 331.295 196.99C330.991 197.144 330.637 197.222 330.231 197.222C329.879 197.222 329.533 197.16 329.191 197.038C328.85 196.915 328.567 196.747 328.343 196.534L328.631 195.926C329.159 196.342 329.695 196.55 330.239 196.55C330.618 196.55 330.911 196.448 331.119 196.246C331.333 196.038 331.439 195.752 331.439 195.39C331.439 195.043 331.333 194.763 331.119 194.55C330.911 194.336 330.631 194.23 330.279 194.23C329.767 194.23 329.357 194.424 329.047 194.814H328.511V191.47H331.999V192.134H329.327V193.942C329.631 193.686 330.007 193.558 330.455 193.558Z" fill="white"/>
<path d="M427.286 244.49V245.17H423.958V244.49H425.206V240.458L424.046 241.178V240.418L425.558 239.474H426.038V244.49H427.286ZM432.083 244.49V245.17H428.755V244.49H430.003V240.458L428.843 241.178V240.418L430.355 239.474H430.835V244.49H432.083ZM434.808 239.41C435.512 239.41 436.053 239.65 436.432 240.13C436.81 240.61 437 241.298 437 242.194C437 242.829 436.909 243.375 436.728 243.834C436.552 244.287 436.293 244.634 435.952 244.874C435.616 245.114 435.213 245.234 434.744 245.234C434.408 245.234 434.082 245.175 433.768 245.058C433.453 244.935 433.178 244.765 432.944 244.546L433.232 243.938C433.498 244.157 433.752 244.317 433.992 244.418C434.237 244.514 434.48 244.562 434.72 244.562C435.184 244.562 435.541 244.359 435.792 243.954C436.048 243.543 436.176 242.962 436.176 242.21V242.186C436.058 242.463 435.866 242.682 435.6 242.842C435.338 243.002 435.037 243.082 434.696 243.082C434.354 243.082 434.05 243.007 433.784 242.858C433.517 242.703 433.309 242.49 433.16 242.218C433.01 241.941 432.936 241.623 432.936 241.266C432.936 240.909 433.016 240.591 433.176 240.314C433.336 240.031 433.557 239.81 433.84 239.65C434.128 239.49 434.45 239.41 434.808 239.41ZM434.848 242.41C435.189 242.41 435.466 242.303 435.68 242.09C435.893 241.871 436 241.591 436 241.25C436 240.903 435.893 240.623 435.68 240.41C435.466 240.191 435.189 240.082 434.848 240.082C434.512 240.082 434.242 240.189 434.04 240.402C433.837 240.615 433.736 240.898 433.736 241.25C433.736 241.597 433.837 241.877 434.04 242.09C434.248 242.303 434.517 242.41 434.848 242.41ZM439.781 245.234C439.119 245.234 438.615 244.986 438.269 244.49C437.922 243.994 437.749 243.271 437.749 242.322C437.749 241.373 437.922 240.65 438.269 240.154C438.615 239.658 439.119 239.41 439.781 239.41C440.442 239.41 440.946 239.658 441.293 240.154C441.639 240.645 441.813 241.365 441.813 242.314C441.813 243.269 441.639 243.994 441.293 244.49C440.946 244.986 440.442 245.234 439.781 245.234ZM439.781 244.57C440.191 244.57 440.493 244.389 440.685 244.026C440.882 243.658 440.981 243.087 440.981 242.314C440.981 241.541 440.885 240.975 440.693 240.618C440.501 240.261 440.197 240.082 439.781 240.082C439.37 240.082 439.066 240.263 438.869 240.626C438.677 240.983 438.581 241.546 438.581 242.314C438.581 243.087 438.677 243.658 438.869 244.026C439.066 244.389 439.37 244.57 439.781 244.57ZM444.873 241.562C445.215 241.562 445.516 241.639 445.777 241.794C446.044 241.943 446.252 242.157 446.401 242.434C446.551 242.706 446.625 243.021 446.625 243.378C446.625 243.735 446.545 244.055 446.385 244.338C446.225 244.615 446.004 244.834 445.721 244.994C445.439 245.154 445.119 245.234 444.761 245.234C444.057 245.234 443.513 244.994 443.129 244.514C442.751 244.034 442.561 243.346 442.561 242.45C442.561 241.815 442.649 241.271 442.825 240.818C443.007 240.359 443.265 240.01 443.601 239.77C443.943 239.53 444.348 239.41 444.817 239.41C445.153 239.41 445.479 239.469 445.793 239.586C446.113 239.703 446.391 239.874 446.625 240.098L446.329 240.706C445.828 240.29 445.332 240.082 444.841 240.082C444.377 240.082 444.02 240.287 443.769 240.698C443.519 241.103 443.393 241.682 443.393 242.434V242.442C443.516 242.165 443.708 241.949 443.969 241.794C444.236 241.639 444.537 241.562 444.873 241.562ZM444.721 244.562C445.052 244.562 445.319 244.455 445.521 244.242C445.724 244.029 445.825 243.746 445.825 243.394C445.825 243.047 445.724 242.767 445.521 242.554C445.319 242.341 445.049 242.234 444.713 242.234C444.377 242.234 444.1 242.343 443.881 242.562C443.668 242.775 443.561 243.053 443.561 243.394C443.561 243.741 443.668 244.023 443.881 244.242C444.095 244.455 444.375 244.562 444.721 244.562Z" fill="white"/>
<path d="M497.286 204.49V205.17H493.958V204.49H495.206V200.458L494.046 201.178V200.418L495.558 199.474H496.038V204.49H497.286ZM502.083 204.49V205.17H498.755V204.49H500.003V200.458L498.843 201.178V200.418L500.355 199.474H500.835V204.49H502.083ZM504.808 199.41C505.512 199.41 506.053 199.65 506.432 200.13C506.81 200.61 507 201.298 507 202.194C507 202.829 506.909 203.375 506.728 203.834C506.552 204.287 506.293 204.634 505.952 204.874C505.616 205.114 505.213 205.234 504.744 205.234C504.408 205.234 504.082 205.175 503.768 205.058C503.453 204.935 503.178 204.765 502.944 204.546L503.232 203.938C503.498 204.157 503.752 204.317 503.992 204.418C504.237 204.514 504.48 204.562 504.72 204.562C505.184 204.562 505.541 204.359 505.792 203.954C506.048 203.543 506.176 202.962 506.176 202.21V202.186C506.058 202.463 505.866 202.682 505.6 202.842C505.338 203.002 505.037 203.082 504.696 203.082C504.354 203.082 504.05 203.007 503.784 202.858C503.517 202.703 503.309 202.49 503.16 202.218C503.01 201.941 502.936 201.623 502.936 201.266C502.936 200.909 503.016 200.591 503.176 200.314C503.336 200.031 503.557 199.81 503.84 199.65C504.128 199.49 504.45 199.41 504.808 199.41ZM504.848 202.41C505.189 202.41 505.466 202.303 505.68 202.09C505.893 201.871 506 201.591 506 201.25C506 200.903 505.893 200.623 505.68 200.41C505.466 200.191 505.189 200.082 504.848 200.082C504.512 200.082 504.242 200.189 504.04 200.402C503.837 200.615 503.736 200.898 503.736 201.25C503.736 201.597 503.837 201.877 504.04 202.09C504.248 202.303 504.517 202.41 504.848 202.41ZM511.741 204.49V205.17H508.005V204.554L509.965 202.402C510.215 202.125 510.397 201.874 510.509 201.65C510.626 201.421 510.685 201.194 510.685 200.97C510.685 200.682 510.602 200.463 510.437 200.314C510.271 200.159 510.031 200.082 509.717 200.082C509.189 200.082 508.661 200.29 508.133 200.706L507.837 200.098C508.061 199.89 508.346 199.725 508.693 199.602C509.039 199.474 509.389 199.41 509.741 199.41C510.285 199.41 510.714 199.546 511.029 199.818C511.349 200.09 511.509 200.458 511.509 200.922C511.509 201.253 511.437 201.567 511.293 201.866C511.149 202.159 510.909 202.487 510.573 202.85L509.053 204.49H511.741ZM516.537 204.49V205.17H512.801V204.554L514.761 202.402C515.012 202.125 515.193 201.874 515.305 201.65C515.423 201.421 515.481 201.194 515.481 200.97C515.481 200.682 515.399 200.463 515.233 200.314C515.068 200.159 514.828 200.082 514.513 200.082C513.985 200.082 513.457 200.29 512.929 200.706L512.633 200.098C512.857 199.89 513.143 199.725 513.489 199.602C513.836 199.474 514.185 199.41 514.537 199.41C515.081 199.41 515.511 199.546 515.825 199.818C516.145 200.09 516.305 200.458 516.305 200.922C516.305 201.253 516.233 201.567 516.089 201.866C515.945 202.159 515.705 202.487 515.369 202.85L513.849 204.49H516.537Z" fill="white"/>
<path d="M425.25 27.1282V20.0782H428.17C428.923 20.0782 429.503 20.2548 429.91 20.6082C430.323 20.9615 430.53 21.4548 430.53 22.0882C430.53 22.5082 430.436 22.8648 430.25 23.1582C430.063 23.4515 429.8 23.6748 429.46 23.8282C429.126 23.9815 428.736 24.0582 428.29 24.0582L428.46 23.9182H428.7C428.973 23.9182 429.216 23.9882 429.43 24.1282C429.643 24.2615 429.82 24.4815 429.96 24.7882L430.96 27.1282H429.93L428.96 24.8082C428.846 24.5215 428.68 24.3348 428.46 24.2482C428.246 24.1615 427.976 24.1182 427.65 24.1182H426.18V27.1282H425.25ZM426.18 23.3982H428.03C428.543 23.3982 428.933 23.2882 429.2 23.0682C429.473 22.8482 429.61 22.5282 429.61 22.1082C429.61 21.6948 429.473 21.3815 429.2 21.1682C428.933 20.9482 428.543 20.8382 428.03 20.8382H426.18V23.3982ZM432.103 27.1282V22.0982H433.013V27.1282H432.103ZM432.023 20.9982V20.0182H433.103V20.9982H432.023ZM436.694 27.2182C436.194 27.2182 435.761 27.1148 435.394 26.9082C435.028 26.6948 434.741 26.3915 434.534 25.9982C434.334 25.5982 434.234 25.1248 434.234 24.5782C434.234 24.0382 434.338 23.5782 434.544 23.1982C434.751 22.8115 435.038 22.5182 435.404 22.3182C435.771 22.1115 436.201 22.0082 436.694 22.0082C437.021 22.0082 437.338 22.0648 437.644 22.1782C437.951 22.2848 438.201 22.4415 438.394 22.6482L438.084 23.2882C437.891 23.1015 437.678 22.9648 437.444 22.8782C437.211 22.7848 436.981 22.7382 436.754 22.7382C436.261 22.7382 435.874 22.8982 435.594 23.2182C435.314 23.5315 435.174 23.9882 435.174 24.5882C435.174 25.1948 435.314 25.6615 435.594 25.9882C435.874 26.3148 436.261 26.4782 436.754 26.4782C436.974 26.4782 437.201 26.4348 437.434 26.3482C437.668 26.2615 437.884 26.1248 438.084 25.9382L438.394 26.5682C438.194 26.7815 437.938 26.9448 437.624 27.0582C437.318 27.1648 437.008 27.2182 436.694 27.2182ZM441.697 27.2182C440.897 27.2182 440.264 26.9882 439.797 26.5282C439.337 26.0682 439.107 25.4348 439.107 24.6282C439.107 24.0948 439.207 23.6348 439.407 23.2482C439.614 22.8548 439.897 22.5515 440.257 22.3382C440.617 22.1182 441.037 22.0082 441.517 22.0082C441.977 22.0082 442.367 22.1082 442.687 22.3082C443.007 22.5015 443.251 22.7782 443.417 23.1382C443.584 23.4982 443.667 23.9248 443.667 24.4182V24.7182H439.817V24.1782H443.047L442.877 24.3082C442.877 23.7882 442.761 23.3848 442.527 23.0982C442.301 22.8115 441.964 22.6682 441.517 22.6682C441.031 22.6682 440.654 22.8382 440.387 23.1782C440.121 23.5115 439.987 23.9682 439.987 24.5482V24.6382C439.987 25.2515 440.137 25.7148 440.437 26.0282C440.744 26.3415 441.167 26.4982 441.707 26.4982C442.007 26.4982 442.287 26.4548 442.547 26.3682C442.807 26.2815 443.057 26.1382 443.297 25.9382L443.597 26.5682C443.371 26.7748 443.087 26.9348 442.747 27.0482C442.414 27.1615 442.064 27.2182 441.697 27.2182ZM449.823 27.1282L446.733 20.0782H447.743L450.433 26.3582H450.093L452.793 20.0782H453.763L450.653 27.1282H449.823ZM454.525 27.1282V22.0982H455.435V27.1282H454.525ZM454.445 20.9982V20.0182H455.525V20.9982H454.445ZM459.246 27.2182C458.446 27.2182 457.813 26.9882 457.346 26.5282C456.886 26.0682 456.656 25.4348 456.656 24.6282C456.656 24.0948 456.756 23.6348 456.956 23.2482C457.163 22.8548 457.446 22.5515 457.806 22.3382C458.166 22.1182 458.586 22.0082 459.066 22.0082C459.526 22.0082 459.916 22.1082 460.236 22.3082C460.556 22.5015 460.8 22.7782 460.966 23.1382C461.133 23.4982 461.216 23.9248 461.216 24.4182V24.7182H457.366V24.1782H460.596L460.426 24.3082C460.426 23.7882 460.31 23.3848 460.076 23.0982C459.85 22.8115 459.513 22.6682 459.066 22.6682C458.58 22.6682 458.203 22.8382 457.936 23.1782C457.67 23.5115 457.536 23.9682 457.536 24.5482V24.6382C457.536 25.2515 457.686 25.7148 457.986 26.0282C458.293 26.3415 458.716 26.4982 459.256 26.4982C459.556 26.4982 459.836 26.4548 460.096 26.3682C460.356 26.2815 460.606 26.1382 460.846 25.9382L461.146 26.5682C460.92 26.7748 460.636 26.9348 460.296 27.0482C459.963 27.1615 459.613 27.2182 459.246 27.2182ZM463.697 27.1282L461.817 22.0982H462.767L464.287 26.4082H464.027L465.587 22.0982H466.327L467.877 26.4082H467.627L469.157 22.0982H470.067L468.177 27.1282H467.317L465.717 22.7482H466.157L464.567 27.1282H463.697ZM473.795 27.1282V20.0782H476.185C476.971 20.0782 477.635 20.2148 478.175 20.4882C478.721 20.7615 479.135 21.1615 479.415 21.6882C479.695 22.2082 479.835 22.8448 479.835 23.5982C479.835 24.3515 479.695 24.9915 479.415 25.5182C479.135 26.0448 478.721 26.4448 478.175 26.7182C477.635 26.9915 476.971 27.1282 476.185 27.1282H473.795ZM474.725 26.3382H476.115C477.055 26.3382 477.751 26.1115 478.205 25.6582C478.658 25.2048 478.885 24.5182 478.885 23.5982C478.885 22.6782 478.658 21.9948 478.205 21.5482C477.751 21.0948 477.055 20.8682 476.115 20.8682H474.725V26.3382ZM481.185 27.1282V23.3282C481.185 23.1282 481.178 22.9248 481.165 22.7182C481.158 22.5048 481.141 22.2982 481.115 22.0982H481.995L482.105 23.3582L481.955 23.3682C482.021 23.0615 482.135 22.8082 482.295 22.6082C482.461 22.4015 482.658 22.2515 482.885 22.1582C483.118 22.0582 483.358 22.0082 483.605 22.0082C483.711 22.0082 483.801 22.0115 483.875 22.0182C483.948 22.0248 484.021 22.0415 484.095 22.0682L484.075 22.8782C483.975 22.8382 483.881 22.8148 483.795 22.8082C483.715 22.7948 483.615 22.7882 483.495 22.7882C483.201 22.7882 482.948 22.8548 482.735 22.9882C482.528 23.1215 482.368 23.2982 482.255 23.5182C482.148 23.7382 482.095 23.9748 482.095 24.2282V27.1282H481.185ZM484.531 27.1282V26.0182H485.641V27.1282H484.531Z" fill="white"/>
<g clip-path="url(#clip4_2642_50597)">
<path d="M298.596 187.17C297.532 187.12 296.469 187.293 295.476 187.677C294.483 188.062 293.581 188.649 292.828 189.402C292.075 190.155 291.487 191.057 291.103 192.05C290.719 193.044 290.546 194.106 290.596 195.17C290.596 197.69 292.596 200.17 293.596 201.17C294.596 202.17 298.596 207.17 298.596 207.17C298.596 207.17 302.596 202.17 303.596 201.17C304.596 200.17 306.596 197.69 306.596 195.17C306.646 194.106 306.473 193.044 306.089 192.05C305.704 191.057 305.117 190.155 304.364 189.402C303.611 188.649 302.709 188.062 301.715 187.677C300.722 187.293 299.66 187.12 298.596 187.17ZM298.596 198.42C297.953 198.42 297.325 198.229 296.79 197.872C296.256 197.515 295.839 197.007 295.593 196.414C295.347 195.82 295.283 195.166 295.408 194.536C295.534 193.905 295.843 193.326 296.298 192.872C296.752 192.417 297.331 192.108 297.962 191.982C298.592 191.857 299.246 191.921 299.84 192.167C300.433 192.413 300.941 192.83 301.298 193.364C301.655 193.899 301.846 194.527 301.846 195.17C301.846 195.597 301.762 196.019 301.598 196.414C301.435 196.808 301.196 197.166 300.894 197.468C300.592 197.77 300.234 198.009 299.84 198.172C299.445 198.336 299.023 198.42 298.596 198.42Z" fill="url(#paint4_linear_2642_50597)"/>
</g>
<g clip-path="url(#clip5_2642_50597)">
<path d="M480.39 206.46C479.326 206.41 478.263 206.583 477.27 206.968C476.277 207.352 475.375 207.94 474.622 208.693C473.869 209.446 473.281 210.348 472.897 211.341C472.513 212.334 472.34 213.397 472.39 214.46C472.39 216.98 474.39 219.46 475.39 220.46C476.39 221.46 480.39 226.46 480.39 226.46C480.39 226.46 484.39 221.46 485.39 220.46C486.39 219.46 488.39 216.98 488.39 214.46C488.44 213.397 488.267 212.334 487.882 211.341C487.498 210.348 486.911 209.446 486.158 208.693C485.404 207.94 484.502 207.352 483.509 206.968C482.516 206.583 481.454 206.41 480.39 206.46ZM480.39 217.71C479.747 217.71 479.119 217.52 478.584 217.163C478.05 216.805 477.633 216.298 477.387 215.704C477.141 215.11 477.077 214.457 477.202 213.826C477.328 213.196 477.637 212.617 478.092 212.162C478.546 211.708 479.125 211.398 479.756 211.273C480.386 211.147 481.04 211.212 481.633 211.458C482.227 211.704 482.735 212.12 483.092 212.655C483.449 213.189 483.64 213.818 483.64 214.46C483.64 214.887 483.556 215.31 483.392 215.704C483.229 216.098 482.99 216.457 482.688 216.758C482.386 217.06 482.028 217.3 481.633 217.463C481.239 217.626 480.817 217.71 480.39 217.71Z" fill="url(#paint5_linear_2642_50597)"/>
</g>
<g clip-path="url(#clip6_2642_50597)">
<path d="M338.39 208.46C337.326 208.41 336.263 208.583 335.27 208.968C334.277 209.352 333.375 209.94 332.622 210.693C331.869 211.446 331.281 212.348 330.897 213.341C330.513 214.334 330.34 215.397 330.39 216.46C330.39 218.98 332.39 221.46 333.39 222.46C334.39 223.46 338.39 228.46 338.39 228.46C338.39 228.46 342.39 223.46 343.39 222.46C344.39 221.46 346.39 218.98 346.39 216.46C346.44 215.397 346.267 214.334 345.882 213.341C345.498 212.348 344.911 211.446 344.158 210.693C343.404 209.94 342.502 209.352 341.509 208.968C340.516 208.583 339.454 208.41 338.39 208.46ZM338.39 219.71C337.747 219.71 337.119 219.52 336.584 219.163C336.05 218.805 335.633 218.298 335.387 217.704C335.141 217.11 335.077 216.457 335.202 215.826C335.328 215.196 335.637 214.617 336.092 214.162C336.546 213.708 337.125 213.398 337.756 213.273C338.386 213.147 339.04 213.212 339.633 213.458C340.227 213.704 340.735 214.12 341.092 214.655C341.449 215.189 341.64 215.818 341.64 216.46C341.64 216.887 341.556 217.31 341.392 217.704C341.229 218.098 340.99 218.457 340.688 218.758C340.386 219.06 340.028 219.3 339.633 219.463C339.239 219.626 338.817 219.71 338.39 219.71Z" fill="url(#paint6_linear_2642_50597)"/>
</g>
<defs>
<linearGradient id="paint0_linear_2642_50597" x1="195.596" y1="245.161" x2="195.596" y2="265.17" gradientUnits="userSpaceOnUse">
<stop stop-color="#D2EAFF" stop-opacity="0.99"/>
<stop offset="1" stop-color="white" stop-opacity="0.33"/>
</linearGradient>
<linearGradient id="paint1_linear_2642_50597" x1="152.596" y1="202.161" x2="152.596" y2="222.17" gradientUnits="userSpaceOnUse">
<stop stop-color="#D2EAFF" stop-opacity="0.99"/>
<stop offset="1" stop-color="white" stop-opacity="0.33"/>
</linearGradient>
<linearGradient id="paint2_linear_2642_50597" x1="207.596" y1="120.284" x2="207.596" y2="140.292" gradientUnits="userSpaceOnUse">
<stop stop-color="#D2EAFF" stop-opacity="0.99"/>
<stop offset="1" stop-color="white" stop-opacity="0.33"/>
</linearGradient>
<linearGradient id="paint3_linear_2642_50597" x1="162.596" y1="148.12" x2="162.596" y2="168.128" gradientUnits="userSpaceOnUse">
<stop stop-color="#D2EAFF" stop-opacity="0.99"/>
<stop offset="1" stop-color="white" stop-opacity="0.33"/>
</linearGradient>
<linearGradient id="paint4_linear_2642_50597" x1="298.596" y1="187.161" x2="298.596" y2="207.17" gradientUnits="userSpaceOnUse">
<stop stop-color="#D2EAFF" stop-opacity="0.99"/>
<stop offset="1" stop-color="white" stop-opacity="0.33"/>
</linearGradient>
<linearGradient id="paint5_linear_2642_50597" x1="480.39" y1="206.452" x2="480.39" y2="226.46" gradientUnits="userSpaceOnUse">
<stop stop-color="#D2EAFF" stop-opacity="0.99"/>
<stop offset="1" stop-color="white" stop-opacity="0.33"/>
</linearGradient>
<linearGradient id="paint6_linear_2642_50597" x1="338.39" y1="208.452" x2="338.39" y2="228.46" gradientUnits="userSpaceOnUse">
<stop stop-color="#D2EAFF" stop-opacity="0.99"/>
<stop offset="1" stop-color="white" stop-opacity="0.33"/>
</linearGradient>
<clipPath id="clip0_2642_50597">
<rect width="20" height="20" fill="white" transform="translate(185.596 245.17)"/>
</clipPath>
<clipPath id="clip1_2642_50597">
<rect width="20" height="20" fill="white" transform="translate(142.596 202.17)"/>
</clipPath>
<clipPath id="clip2_2642_50597">
<rect width="20" height="20" fill="white" transform="translate(197.596 120.292)"/>
</clipPath>
<clipPath id="clip3_2642_50597">
<rect width="20" height="20" fill="white" transform="translate(152.596 148.128)"/>
</clipPath>
<clipPath id="clip4_2642_50597">
<rect width="20" height="20" fill="white" transform="translate(288.596 187.17)"/>
</clipPath>
<clipPath id="clip5_2642_50597">
<rect width="20" height="20" fill="white" transform="translate(470.39 206.46)"/>
</clipPath>
<clipPath id="clip6_2642_50597">
<rect width="20" height="20" fill="white" transform="translate(328.39 208.46)"/>
</clipPath>
</defs>
</svg>
