<svg width="488" height="393" viewBox="0 0 488 393" fill="none" xmlns="http://www.w3.org/2000/svg">
<path d="M455.568 196.202C455.798 195.122 456.86 194.432 457.94 194.662C459.02 194.892 459.71 195.954 459.48 197.034L453.438 225.452L448.931 258.551C448.977 258.76 448.993 258.982 448.968 259.208C448.939 259.468 448.859 259.71 448.743 259.928L444.924 287.971L444.921 287.994L444.917 288.017L435.056 349.425L432.492 375.266C439.704 376.379 445.247 377.253 447.006 377.472L448.038 377.613C449.072 377.761 450.522 377.983 452.268 378.257L479.552 200.801C479.72 199.709 480.742 198.96 481.833 199.128C482.924 199.296 483.673 200.318 483.506 201.409L456.219 378.884C461.894 379.797 469.144 380.997 475.594 382.074L485.678 383.766L485.877 383.811C486.854 384.081 487.489 385.051 487.316 386.072C487.144 387.092 486.226 387.802 485.215 387.735L485.011 387.711L474.909 386.015C467.821 384.832 459.794 383.506 453.973 382.576C453.86 382.578 453.746 382.572 453.631 382.555C453.508 382.536 453.39 382.504 453.276 382.465C450.836 382.076 448.832 381.766 447.52 381.579L446.51 381.442C443.79 381.102 432.263 379.238 419.71 377.369C407.068 375.487 393.363 373.596 386.064 373.153C371.304 372.259 357.883 372.035 352.31 372.035H349.238C348.565 372.078 347.843 372.127 347.082 372.178C346.701 372.415 346.239 372.529 345.76 372.465C345.561 372.438 345.373 372.382 345.199 372.304C340.307 372.637 334.21 373.084 328.54 373.559C323.243 374.004 318.434 374.468 315.309 374.877L315.686 375.881C316.804 378.935 318.084 382.742 319.028 385.622L319.967 388.525L320.019 388.723C320.227 389.715 319.654 390.723 318.668 391.037C317.681 391.351 316.631 390.859 316.227 389.93L316.155 389.738L315.223 386.854C314.288 384.004 313.027 380.256 311.936 377.273L311.34 375.682C310.354 376.055 308.963 376.69 307.227 377.567C304.82 378.785 301.935 380.373 298.918 382.101C293.64 385.125 288.009 388.548 283.915 391.103L282.26 392.141C281.326 392.73 280.091 392.451 279.502 391.517C278.913 390.583 279.193 389.348 280.127 388.759L281.795 387.712C285.922 385.136 291.598 381.685 296.93 378.631C299.975 376.886 302.926 375.26 305.422 373.998C307.338 373.029 309.11 372.208 310.478 371.743C310.41 371.071 310.366 370.379 310.345 369.679C310.278 367.467 310.412 365.015 310.674 362.585C311.194 357.751 312.237 352.797 313.325 349.75C314.261 347.129 315.207 341.701 316.077 335.375C316.937 329.128 317.693 322.247 318.3 316.856C318.903 311.498 319.253 305.783 319.725 300.506C320.184 295.363 320.763 290.542 321.882 287.408L322.017 287.007C322.635 285.022 322.483 283.338 322.011 281.482C321.746 280.442 321.4 279.415 321.015 278.189C320.84 277.632 320.662 277.047 320.493 276.433C316.78 277.692 313.588 278.794 311.569 279.555L310.65 279.911C308.985 280.577 306.971 282.61 305.023 285.309C303.145 287.912 301.579 290.775 300.725 292.591C300.254 293.59 299.063 294.018 298.063 293.549C297.064 293.078 296.635 291.887 297.104 290.888C298.045 288.89 299.732 285.806 301.779 282.969C303.757 280.228 306.343 277.326 309.164 276.197L310.131 275.822C312.329 274.992 315.787 273.802 319.687 272.482C319.222 269.554 317.627 264.27 315.854 258.855C314.276 254.032 312.568 249.129 311.618 246.199L311.26 245.07C311.01 244.26 310.364 242.964 309.359 241.292C308.379 239.66 307.138 237.797 305.8 235.893C303.124 232.087 300.117 228.19 298.168 225.77C297.475 224.91 297.611 223.652 298.471 222.959C299.331 222.266 300.589 222.402 301.282 223.262C303.272 225.732 306.335 229.7 309.072 233.594C310.44 235.54 311.741 237.488 312.789 239.232C313.128 239.796 313.448 240.356 313.741 240.897C318.66 237.804 328.112 232.36 336.669 228.941C336.868 228.687 337.133 228.477 337.45 228.34C337.823 228.178 338.218 228.139 338.59 228.204C339.299 227.943 340.002 227.697 340.693 227.471L342.977 226.716C354.41 222.899 366.006 218.581 376.977 217.29C388.645 215.917 410.142 217.057 419.669 218.418L421.191 218.64C428.732 219.762 442.359 222.051 449.802 223.322L455.568 196.202ZM422.941 259.464L416.429 298.311L416.43 298.312L410.372 339.367L410.37 339.379L410.368 339.391L406.779 361.825L406.736 362.025C406.476 363.005 405.511 363.647 404.488 363.484C403.398 363.31 402.655 362.284 402.829 361.193L403.597 356.391L379.395 352.636C378.286 358.581 377.207 364.189 376.335 368.64C379.534 368.782 382.884 368.953 386.306 369.16C393.814 369.615 407.704 371.538 420.299 373.413C423.138 373.836 425.91 374.256 428.533 374.657L431.087 348.913L431.097 348.853L440.968 287.384L444.598 260.726C438.782 260.066 430.152 259.055 423.059 258.144L422.941 259.464ZM350.285 297.632C347.062 298.223 343.939 298.759 341.477 299.147C340.247 299.341 339.171 299.501 338.327 299.612C337.535 299.716 336.815 299.796 336.38 299.796C335.3 299.796 332.806 299.466 330.339 299.101C328.112 298.773 325.724 298.386 323.977 298.094C323.885 298.982 323.794 299.907 323.709 300.862C323.253 305.968 322.883 311.901 322.275 317.304C321.671 322.674 320.908 329.613 320.04 335.92C319.183 342.148 318.194 348.011 317.093 351.096C316.144 353.752 315.149 358.374 314.65 363.013C314.402 365.318 314.283 367.58 314.343 369.557C314.358 370.052 314.383 370.52 314.42 370.959C317.765 370.506 322.86 370.022 328.205 369.573C333.658 369.115 339.499 368.685 344.295 368.355L344.899 363.886C347.101 347.652 350.578 322.525 351.687 316.503C352.824 310.335 352.253 301.58 351.751 297.358C351.26 297.45 350.771 297.543 350.285 297.632ZM380.113 290.034C376.415 291.247 371.667 292.555 368.259 293.581L366.602 294.093C364.478 294.773 360.264 295.699 355.688 296.602C356.214 300.851 356.893 310.324 355.621 317.227C354.445 323.609 350.507 352.228 348.368 368.083C348.451 368.077 348.534 368.073 348.616 368.067V368.035H352.31C356.093 368.035 363.407 368.136 372.292 368.473C373.821 360.688 376.037 349.062 377.938 338.322C379.932 327.062 381.546 316.971 381.718 313.184L381.751 312.302C381.981 304.627 380.809 295.001 380.113 290.034ZM408.262 282.942L399.119 283.638C393.486 284.055 388.417 285.893 386.218 287.381L386.014 287.523C385.482 287.91 384.76 288.277 383.956 288.625C384.636 293.332 386.005 303.946 385.749 312.441L385.714 313.366C385.527 317.476 383.85 327.877 381.877 339.02C381.312 342.21 380.719 345.478 380.125 348.7L404.229 352.44L406.419 338.759L412.472 297.728L412.475 297.709L412.478 297.69L415.038 282.415C413.182 282.56 410.759 282.749 408.262 282.942ZM134.347 0.938299C135.125 0.154888 136.391 0.150281 137.175 0.927557C137.958 1.70571 137.963 2.97282 137.186 3.75666C130.406 10.5868 122.557 18.5009 114.133 26.993C114.211 27.0453 114.288 27.1013 114.359 27.1658C128.344 39.7639 157.658 64.4368 161.88 68.0955L162.136 68.3113C166.297 63.7421 172.507 56.8546 177.949 50.6639C180.73 47.5004 183.304 44.5263 185.3 42.1414C187.35 39.6906 188.656 38.0163 189.038 37.3621C189.829 36.0051 190.504 33.6855 191.008 31.1356C191.499 28.648 191.785 26.1778 191.895 24.6863L191.921 24.4832C192.098 23.4854 193.005 22.7635 194.037 22.8397C195.069 22.9163 195.861 23.7641 195.889 24.7772L195.884 24.9813C195.763 26.6131 195.458 29.2455 194.932 31.911C194.417 34.5144 193.646 37.4028 192.494 39.3778C191.904 40.3899 190.337 42.3545 188.367 44.7088C186.341 47.1301 183.742 50.1313 180.953 53.3045C175.545 59.4569 169.387 66.2883 165.217 70.869C174.439 78.4202 197.84 97.1145 208.237 105.226C208.563 104.889 208.85 104.59 209.093 104.332L209.614 103.769C215.121 97.731 224.254 85.012 226.934 80.992L227.177 80.6375C228.484 78.7776 231.128 75.6426 233.868 72.5076C236.829 69.1193 240.017 65.6001 242.051 63.3924C242.799 62.5805 244.065 62.5286 244.877 63.2762C245.689 64.0244 245.741 65.29 244.993 66.1024C242.977 68.2909 239.813 71.7841 236.88 75.1404C234.094 78.3283 231.614 81.2832 230.472 82.9051L230.262 83.2108C227.562 87.2606 218.286 100.201 212.55 106.487L212.006 107.074C211.83 107.261 211.632 107.465 211.419 107.687C212.261 108.33 212.814 108.743 213.047 108.898L213.393 109.144C214.335 109.851 216.222 111.45 218.585 113.495C221.353 115.891 224.927 119.034 228.778 122.445C236.009 128.85 244.237 136.218 250.005 141.405C253.064 138.397 256.002 135.564 257.86 134.015C262.108 130.475 265.364 127.863 267.627 124.953L268.598 123.73C271.356 120.296 277.255 113.186 279.505 110.63L279.648 110.482C280.391 109.794 281.551 109.765 282.328 110.449C283.157 111.179 283.237 112.442 282.508 113.271L281.359 114.6C278.695 117.718 274.061 123.316 271.735 126.211L270.784 127.409C268.188 130.746 264.502 133.688 260.421 137.089C258.419 138.757 254.93 142.157 251.306 145.738C247.729 149.272 244.044 152.956 241.755 155.069C237.281 159.198 217.543 178.936 215.435 181.045C214.554 181.925 212.924 183.554 211.073 185.379C214.772 189.628 222.491 198.909 230.069 208.052C236.132 215.365 242.114 222.599 245.957 227.194C250.624 222.896 259.134 215.754 267.204 209.039C275.881 201.818 284.035 195.103 286.65 192.725C291.98 187.88 300.288 180.729 306.684 176.302L307.181 175.963C312.306 172.541 316.901 171.425 320.375 171.425C321.479 171.425 322.375 172.32 322.375 173.425C322.375 174.529 321.479 175.424 320.375 175.425C317.766 175.425 313.934 176.264 309.401 179.29L308.96 179.59C302.791 183.861 294.642 190.866 289.341 195.685C286.639 198.142 278.361 204.958 269.763 212.113C261.567 218.933 253.061 226.075 248.535 230.258C248.944 230.739 249.285 231.136 249.548 231.436L250.296 232.279C253.616 235.965 257.887 240.06 260.394 242.371L261.415 243.303L261.561 243.447C262.241 244.198 262.257 245.357 261.564 246.127C260.872 246.896 259.716 247.002 258.898 246.404L258.739 246.275L257.697 245.325C255.137 242.966 250.758 238.768 247.314 234.945L246.537 234.071C246.301 233.802 246.007 233.457 245.658 233.048C239.137 239.693 233.52 247.62 228.684 254.796L226.445 258.139C225.061 260.217 223.587 262.946 221.853 266.192C220.137 269.406 218.191 273.073 215.907 276.894C211.337 284.542 205.359 292.907 196.897 299.876C179.71 314.03 162.019 311.197 148.934 308.773C141.867 307.464 134.402 302.455 128.477 297.324C122.546 292.188 117.746 286.567 116.129 283.601C113.191 278.215 94.8031 239.982 90.4482 230.305C88.4037 225.761 85.4311 222.08 82.2666 218.557C79.1687 215.109 75.7322 211.663 73.2099 207.88C72.7323 207.163 71.7184 206.027 70.1474 204.496C68.6075 202.995 66.628 201.204 64.3134 199.197C59.6854 195.184 53.7747 190.356 47.4687 185.317C41.1654 180.281 34.4817 175.046 28.3125 170.221C22.1486 165.4 16.4883 160.98 12.249 157.589C3.6777 150.731 0.57116 145.435 0.267536 141.188C-0.0395934 136.886 2.67726 134.26 3.20015 133.563L3.30562 133.431C3.42476 133.291 3.57798 133.129 3.6982 133.001C3.90582 132.78 4.19177 132.481 4.54781 132.111C5.26159 131.37 6.27696 130.327 7.55953 129.015C10.1265 126.39 13.7777 122.677 18.2578 118.133C27.2188 109.043 39.5075 96.6155 53.1074 82.8787C80.3079 55.4043 112.76 22.6857 134.347 0.938299ZM208.209 188.18C206.797 189.55 205.398 190.886 204.218 191.971L203.558 192.571C201.948 194.019 199.516 196.777 197.183 199.672C194.853 202.562 192.755 205.425 191.787 207.038C189.64 210.616 182.291 220.759 179.486 224.265C178.105 225.993 174.474 230.573 170.848 235.409C167.173 240.308 163.651 245.275 162.359 247.858C160.798 250.981 157.247 254.764 153.776 258.192C150.378 261.548 147.01 264.609 144.768 266.955L144.335 267.414C143.231 268.603 141.438 269.859 139.439 271.073C137.396 272.314 134.971 273.609 132.473 274.854C127.742 277.213 122.657 279.439 119.203 280.86C119.374 281.189 119.521 281.466 119.641 281.685C120.923 284.036 125.308 289.289 131.095 294.301C136.888 299.318 143.681 303.733 149.662 304.841C162.672 307.25 178.681 309.696 194.354 296.789C202.323 290.226 208.024 282.288 212.474 274.843C214.699 271.118 216.599 267.539 218.325 264.308C220.034 261.11 221.602 258.193 223.116 255.921L225.355 252.576C230.276 245.271 236.16 236.959 243.07 229.976C239.203 225.354 233.113 217.99 226.99 210.604C219.46 201.52 211.888 192.417 208.209 188.18ZM372.161 259.367C363.082 261.789 352.698 265.199 346.64 267.404L344.939 268.034C340.257 269.806 331.778 272.631 324.288 275.151C324.454 275.771 324.638 276.379 324.83 276.989C325.182 278.11 325.586 279.313 325.887 280.496C326.475 282.809 326.739 285.277 325.844 288.169L325.649 288.753C325.167 290.102 324.785 291.929 324.464 294.118C326.204 294.411 328.652 294.809 330.923 295.144C333.521 295.528 335.665 295.796 336.38 295.796H336.39C336.396 295.796 336.405 295.795 336.416 295.795C336.439 295.794 336.471 295.793 336.511 295.79C336.591 295.784 336.694 295.775 336.821 295.763C337.077 295.737 337.407 295.698 337.806 295.645C338.602 295.541 339.64 295.387 340.852 295.196C343.276 294.814 346.366 294.285 349.563 293.698C356.021 292.514 362.727 291.133 365.384 290.283L366.248 290.011C370.144 288.805 375.469 287.385 379.439 286.046C379.275 285.357 379.044 284.436 378.754 283.317C378.212 281.23 377.497 278.571 376.717 275.716C375.164 270.032 373.357 263.589 372.161 259.367ZM412.767 256.694C405.162 255.391 394.601 255.378 384.423 256.706C382.114 257.007 379.223 257.602 376.039 258.376C377.237 262.607 379.03 269.006 380.575 274.661C381.357 277.523 382.078 280.201 382.626 282.312C382.841 283.14 383.033 283.903 383.195 284.564C383.397 284.459 383.553 284.367 383.661 284.289L383.938 284.094C386.895 282.08 392.721 280.101 398.823 279.649L407.953 278.954C410.922 278.725 413.787 278.501 415.72 278.349L418.97 258.966L419.089 257.623C417.296 257.381 415.686 257.154 414.362 256.951L412.767 256.694ZM167.824 151.023C164.768 153.877 161.429 156.953 158.502 159.722C156.832 161.301 155.33 162.749 154.142 163.953C153.071 165.038 152.333 165.847 151.942 166.35L151.796 166.548C151.197 167.403 150.06 169.077 148.599 171.215C147.144 173.342 145.382 175.91 143.554 178.521C140.16 183.37 136.442 188.513 134.038 191.239L133.575 191.751C131.444 194.046 128.247 198.663 124.818 203.631C121.676 208.183 118.359 212.998 115.73 216.105L115.215 216.703C112.889 219.339 108.658 222.11 104.55 224.442C100.924 226.5 97.1943 228.325 94.497 229.543C98.6915 238.745 111.76 265.976 117.393 277.279C120.778 275.894 125.928 273.647 130.688 271.274C133.133 270.056 135.45 268.816 137.363 267.654C139.321 266.465 140.702 265.447 141.403 264.692L141.851 264.219C144.171 261.792 147.774 258.497 150.965 255.347C154.522 251.834 157.566 248.501 158.781 246.07C160.267 243.1 164.034 237.827 167.647 233.009C171.309 228.127 174.967 223.51 176.362 221.766C179.111 218.33 186.339 208.344 188.357 204.98C189.472 203.122 191.713 200.084 194.068 197.161C196.42 194.243 199.02 191.273 200.882 189.597L201.518 189.019C202.672 187.958 204.06 186.632 205.477 185.258C200.573 180.615 179.693 161.728 167.824 151.023ZM337.287 233.008C328.938 236.455 319.781 241.788 315.317 244.634C316.223 247.462 317.954 252.409 319.656 257.611C321.276 262.562 322.883 267.792 323.521 271.188C330.918 268.701 339.027 265.995 343.524 264.294L345.23 263.661C345.897 263.418 346.618 263.16 347.384 262.89C346.932 261.167 346.339 258.903 345.755 256.68L343.903 249.667C343.545 248.323 342.291 245.065 340.782 241.36C339.61 238.481 338.324 235.43 337.287 233.008ZM419.103 222.378C409.786 221.047 388.657 219.943 377.443 221.263C366.962 222.496 355.92 226.616 344.274 230.5L341.937 231.272C341.637 231.371 341.333 231.474 341.026 231.581C342.059 233.996 343.327 237.004 344.486 239.851C345.96 243.469 347.33 246.992 347.769 248.636L349.624 255.664C350.176 257.765 350.736 259.902 351.177 261.585C361.26 258.181 375.798 253.797 383.906 252.739C394.367 251.375 405.344 251.363 413.442 252.751L414.978 252.999C416.219 253.189 417.736 253.404 419.443 253.636L422.177 222.835C421.631 222.751 421.109 222.672 420.613 222.598L419.103 222.378ZM423.412 254.156C430.542 255.073 439.288 256.097 445.138 256.762L449.154 227.269C443.305 226.27 433.643 224.643 426.138 223.452L423.412 254.156ZM33.0234 108.869C28.6223 113.323 24.6099 117.387 21.1064 120.941C16.6275 125.485 12.9811 129.192 10.4199 131.811C9.13906 133.121 8.13121 134.156 7.42769 134.887C7.07556 135.252 6.80295 135.537 6.61226 135.74C6.44557 135.917 6.38478 135.987 6.37984 135.991L6.40035 135.964C5.47217 137.201 4.08208 138.442 4.25777 140.903C4.43794 143.422 6.40719 147.793 14.748 154.466C18.9655 157.84 24.6037 162.241 30.7773 167.069C36.9458 171.894 43.6443 177.141 49.9658 182.192C56.2842 187.241 62.245 192.109 66.9345 196.176C69.278 198.208 71.3215 200.054 72.9394 201.632C74.5254 203.178 75.8074 204.565 76.538 205.661C78.8482 209.126 81.9373 212.206 85.2421 215.885C87.8866 218.828 90.5787 222.071 92.7324 225.95C95.3389 224.777 99.016 222.984 102.575 220.964C106.681 218.633 110.376 216.141 112.215 214.056L112.695 213.501C115.144 210.604 118.324 205.998 121.526 201.358C124.079 197.66 126.667 193.909 128.808 191.202C125.079 187.142 119.882 181.536 115.171 176.574C112.565 173.83 110.116 171.29 108.15 169.32C106.373 167.539 105.106 166.343 104.471 165.829L104.238 165.651C102.461 164.407 96.5954 159.942 90.6826 155.453C85.4609 151.489 80.1954 147.502 77.4804 145.542L76.4804 144.832C74.5802 143.516 66.699 137.038 57.7617 129.601C51.0142 123.987 43.5853 117.758 37.4853 112.628L33.0234 108.869ZM55.9502 85.6932C48.7852 92.9303 41.984 99.8028 35.8427 106.015L40.0605 109.567C46.1561 114.694 53.5796 120.917 60.3203 126.526C69.3653 134.052 77.0454 140.358 78.7568 141.543L79.792 142.277C82.5873 144.294 87.9228 148.336 93.1015 152.267C99.0746 156.802 104.837 161.188 106.531 162.374L106.894 162.646C107.818 163.382 109.289 164.799 110.981 166.495C112.981 168.499 115.457 171.067 118.071 173.82C122.665 178.659 127.715 184.102 131.427 188.141C133.643 185.539 137.021 180.879 140.276 176.228C142.092 173.635 143.844 171.081 145.296 168.958C146.741 166.844 147.904 165.133 148.519 164.254L148.748 163.943C149.33 163.186 150.244 162.208 151.295 161.143C152.532 159.89 154.072 158.405 155.753 156.815C158.581 154.141 161.902 151.078 164.867 148.312C161.143 144.829 155.98 140.042 151.235 135.741C148.578 133.332 146.059 131.08 144.001 129.296C142.166 127.705 140.774 126.554 139.98 125.975L139.678 125.763C137.514 124.32 130.05 118.522 122.811 112.877C115.478 107.159 108.347 101.576 106.667 100.4C103.374 98.0951 89.0834 87.2356 82.6777 81.8338L81.5078 80.8299C77.6186 77.4267 73.8489 72.6549 71.7548 69.7352C66.3722 75.1681 61.0682 80.5236 55.9502 85.6932ZM208.6 110.568C200.087 119.163 181.99 136.85 176.241 142.789L175.222 143.858C174.153 145.003 172.574 146.543 170.75 148.275C182.649 159.008 203.472 177.843 208.337 182.459C210.146 180.675 211.738 179.086 212.606 178.217C214.667 176.156 234.491 156.331 239.042 152.131C240.99 150.332 243.999 147.341 247.152 144.219C241.398 139.045 233.273 131.77 226.126 125.439C222.279 122.031 218.719 118.9 215.968 116.519C213.502 114.386 211.793 112.95 211.075 112.405L210.828 112.226C210.456 111.979 209.675 111.393 208.6 110.568ZM111.369 29.7781C99.6623 41.5807 86.9804 54.3679 74.6123 66.8504C76.4811 69.521 80.3051 74.463 84.1416 77.8201L85.2861 78.8016C91.5646 84.094 105.744 94.8709 108.961 97.1229C110.753 98.3774 118.027 104.074 125.27 109.722C132.607 115.443 139.894 121.1 141.896 122.434L142.29 122.71C143.289 123.435 144.828 124.719 146.621 126.273C148.711 128.085 151.255 130.36 153.922 132.777C158.767 137.169 164.041 142.06 167.789 145.568C169.685 143.771 171.27 142.228 172.297 141.129L173.322 140.055C179.028 134.16 196.885 116.695 205.416 108.098C193.84 99.056 167.353 77.8781 160.421 72.0994L159.261 71.118C155.149 67.5547 125.693 42.7597 111.682 30.1375C111.561 30.0284 111.457 29.907 111.369 29.7781Z" fill="#D8E0E7"/>
</svg>
